{"asset":{"version":"2.0","generator":"THREE.GLTFExporter"},"scenes":[{"nodes":[0],"name":"AuxScene"}],"scene":0,"nodes":[{"mesh":0}],"bufferViews":[{"buffer":0,"byteOffset":0,"byteLength":6012,"target":34962,"byteStride":12},{"buffer":0,"byteOffset":6012,"byteLength":6012,"target":34962,"byteStride":12},{"buffer":0,"byteOffset":12024,"byteLength":6012,"target":34962,"byteStride":12},{"buffer":0,"byteOffset":18036,"byteLength":4008,"target":34962,"byteStride":8},{"buffer":0,"byteOffset":22044,"byteLength":6012,"target":34962,"byteStride":12},{"buffer":0,"byteOffset":28056,"byteLength":6012,"target":34962,"byteStride":12},{"buffer":0,"byteOffset":34068,"byteLength":6012,"target":34962,"byteStride":12},{"buffer":0,"byteOffset":40080,"byteLength":6012,"target":34962,"byteStride":12},{"buffer":0,"byteOffset":46092,"byteLength":6012,"target":34962,"byteStride":12},{"buffer":0,"byteOffset":52104,"byteLength":6012,"target":34962,"byteStride":12},{"buffer":0,"byteOffset":58116,"byteLength":6012,"target":34962,"byteStride":12},{"buffer":0,"byteOffset":64128,"byteLength":6012,"target":34962,"byteStride":12},{"buffer":0,"byteOffset":70140,"byteLength":6012,"target":34962,"byteStride":12},{"buffer":0,"byteOffset":76152,"byteLength":6012,"target":34962,"byteStride":12},{"buffer":0,"byteOffset":82164,"byteLength":6012,"target":34962,"byteStride":12},{"buffer":0,"byteOffset":88176,"byteLength":6012,"target":34962,"byteStride":12},{"buffer":0,"byteOffset":94188,"byteLength":6012,"target":34962,"byteStride":12},{"buffer":0,"byteOffset":100200,"byteLength":6012,"target":34962,"byteStride":12},{"buffer":0,"byteOffset":106212,"byteLength":6012,"target":34962,"byteStride":12},{"buffer":0,"byteOffset":112224,"byteLength":6012,"target":34962,"byteStride":12},{"buffer":0,"byteOffset":118236,"byteLength":6012,"target":34962,"byteStride":12},{"buffer":0,"byteOffset":124248,"byteLength":6012,"target":34962,"byteStride":12},{"buffer":0,"byteOffset":130260,"byteLength":6012,"target":34962,"byteStride":12},{"buffer":0,"byteOffset":136272,"byteLength":6012,"target":34962,"byteStride":12},{"buffer":0,"byteOffset":142284,"byteLength":6012,"target":34962,"byteStride":12},{"buffer":0,"byteOffset":148296,"byteLength":6012,"target":34962,"byteStride":12},{"buffer":0,"byteOffset":154308,"byteLength":6012,"target":34962,"byteStride":12},{"buffer":0,"byteOffset":160320,"byteLength":6012,"target":34962,"byteStride":12},{"buffer":0,"byteOffset":166332,"byteLength":6012,"target":34962,"byteStride":12},{"buffer":0,"byteOffset":172344,"byteLength":6012,"target":34962,"byteStride":12},{"buffer":0,"byteOffset":178356,"byteLength":6012,"target":34962,"byteStride":12},{"buffer":0,"byteOffset":184368,"byteLength":6012,"target":34962,"byteStride":12},{"buffer":0,"byteOffset":190380,"byteLength":6012,"target":34962,"byteStride":12},{"buffer":0,"byteOffset":196392,"byteLength":6012,"target":34962,"byteStride":12},{"buffer":0,"byteOffset":202404,"byteLength":6012,"target":34962,"byteStride":12},{"buffer":0,"byteOffset":208416,"byteLength":6012,"target":34962,"byteStride":12},{"buffer":0,"byteOffset":214428,"byteLength":6012,"target":34962,"byteStride":12},{"buffer":0,"byteOffset":220440,"byteLength":6012,"target":34962,"byteStride":12},{"buffer":0,"byteOffset":226452,"byteLength":6012,"target":34962,"byteStride":12},{"buffer":0,"byteOffset":232464,"byteLength":6012,"target":34962,"byteStride":12},{"buffer":0,"byteOffset":238476,"byteLength":6012,"target":34962,"byteStride":12},{"buffer":0,"byteOffset":244488,"byteLength":6012,"target":34962,"byteStride":12},{"buffer":0,"byteOffset":250500,"byteLength":6012,"target":34962,"byteStride":12},{"buffer":0,"byteOffset":256512,"byteLength":6012,"target":34962,"byteStride":12},{"buffer":0,"byteOffset":262524,"byteLength":6012,"target":34962,"byteStride":12},{"buffer":0,"byteOffset":268536,"byteLength":6012,"target":34962,"byteStride":12},{"buffer":0,"byteOffset":274548,"byteLength":6012,"target":34962,"byteStride":12},{"buffer":0,"byteOffset":280560,"byteLength":6012,"target":34962,"byteStride":12},{"buffer":0,"byteOffset":286572,"byteLength":5904,"target":34963},{"buffer":0,"byteOffset":292476,"byteLength":92},{"buffer":0,"byteOffset":292568,"byteLength":2024}],"buffers":[{"byteLength":294592,"uri":"data:application/octet-stream;base64,"}],"accessors":[{"bufferView":0,"componentType":5126,"count":501,"max":[48.55323028564453,158.90309143066406,106.48182678222656],"min":[-50.3087043762207,-1.5398410558700562,-112.04866027832031],"type":"VEC3"},{"bufferView":1,"componentType":5126,"count":501,"max":[0.9990878105163574,0.9721772074699402,0.993122935295105],"min":[-0.9986538290977478,-0.9999996423721313,-0.9993422627449036],"type":"VEC3"},{"bufferView":2,"componentType":5126,"count":501,"max":[1,0.23000000417232513,0.23000000417232513],"min":[0,0,0],"type":"VEC3"},{"bufferView":3,"componentType":5126,"count":501,"max":[0.9705640077590942,0.9943950176239014],"min":[0.032912999391555786,0.0067079998552799225],"type":"VEC2"},{"bufferView":4,"componentType":5126,"count":501,"max":[0,0,0],"min":[0,0,0],"type":"VEC3"},{"bufferView":5,"componentType":5126,"count":501,"max":[1.6895573139190674,1.335699200630188,1.289989709854126],"min":[-1.6218116283416748,-1.8205102682113647,-1.6750495433807373],"type":"VEC3"},{"bufferView":6,"componentType":5126,"count":501,"max":[5.504831314086914,26.407981872558594,22.660531997680664],"min":[-8.496249198913574,-18.166378021240234,-34.365753173828125],"type":"VEC3"},{"bufferView":7,"componentType":5126,"count":501,"max":[1.700622797012329,1.4177144765853882,1.2340247631072998],"min":[-1.393343448638916,-1.7617279291152954,-1.76808762550354],"type":"VEC3"},{"bufferView":8,"componentType":5126,"count":501,"max":[10.526859283447266,60.48854446411133,66.05132293701172],"min":[-20.714345932006836,-24.281776428222656,-62.89193344116211],"type":"VEC3"},{"bufferView":9,"componentType":5126,"count":501,"max":[1.7284071445465088,1.5053691864013672,1.1513582468032837],"min":[-1.7959342002868652,-1.7197246551513672,-1.7365210056304932],"type":"VEC3"},{"bufferView":10,"componentType":5126,"count":501,"max":[12.224614143371582,83.41222381591797,108.6456527709961],"min":[-26.46833610534668,-37.505958557128906,-75.20234680175781],"type":"VEC3"},{"bufferView":11,"componentType":5126,"count":501,"max":[1.7354626655578613,1.6457595825195312,1.6229195594787598],"min":[-1.799225091934204,-1.620774507522583,-1.694962501525879],"type":"VEC3"},{"bufferView":12,"componentType":5126,"count":501,"max":[14.704523086547852,100.02758026123047,138.7631072998047],"min":[-21.099119186401367,-43.26802444458008,-89.19114685058594],"type":"VEC3"},{"bufferView":13,"componentType":5126,"count":501,"max":[1.7204210758209229,1.68215811252594,1.831437587738037],"min":[-1.750770092010498,-1.5880930423736572,-1.7877639532089233],"type":"VEC3"},{"bufferView":14,"componentType":5126,"count":501,"max":[22.82991600036621,108.5675277709961,134.53125],"min":[-9.774980545043945,-47.82856369018555,-101.85393524169922],"type":"VEC3"},{"bufferView":15,"componentType":5126,"count":501,"max":[1.7366197109222412,1.6910971403121948,1.9042236804962158],"min":[-1.591677188873291,-1.6316848993301392,-1.8202123641967773],"type":"VEC3"},{"bufferView":16,"componentType":5126,"count":501,"max":[26.243282318115234,106.75055694580078,132.69358825683594],"min":[-6.290904998779297,-49.139984130859375,-100.79049682617188],"type":"VEC3"},{"bufferView":17,"componentType":5126,"count":501,"max":[1.722917079925537,1.7414921522140503,1.7458057403564453],"min":[-1.1546621322631836,-1.7683830261230469,-1.7654414176940918],"type":"VEC3"},{"bufferView":18,"componentType":5126,"count":501,"max":[26.201107025146484,94.99124908447266,119.28435516357422],"min":[-12.144754409790039,-57.149932861328125,-104.51927185058594],"type":"VEC3"},{"bufferView":19,"componentType":5126,"count":501,"max":[1.6968562602996826,1.5702340602874756,1.3534458875656128],"min":[-1.0128955841064453,-1.782279133796692,-1.727949619293213],"type":"VEC3"},{"bufferView":20,"componentType":5126,"count":501,"max":[23.643369674682617,60.66984558105469,70.53306579589844],"min":[-16.827646255493164,-57.37762451171875,-85.45573425292969],"type":"VEC3"},{"bufferView":21,"componentType":5126,"count":501,"max":[1.5787454843521118,1.6797654628753662,1.2771457433700562],"min":[-1.7295118570327759,-1.8625576496124268,-1.782346248626709],"type":"VEC3"},{"bufferView":22,"componentType":5126,"count":501,"max":[19.566022872924805,61.184425354003906,33.8240852355957],"min":[-23.93431854248047,-46.79414367675781,-64.462890625],"type":"VEC3"},{"bufferView":23,"componentType":5126,"count":501,"max":[1.091986060142517,1.6879703998565674,1.6758356094360352],"min":[-1.4860724210739136,-1.765756368637085,-1.787968635559082],"type":"VEC3"},{"bufferView":24,"componentType":5126,"count":501,"max":[17.255706787109375,44.19692611694336,46.306129455566406],"min":[-24.922595977783203,-29.51856231689453,-31.820758819580078],"type":"VEC3"},{"bufferView":25,"componentType":5126,"count":501,"max":[1.6609641313552856,1.7437406778335571,1.7553584575653076],"min":[-1.502225637435913,-1.7565557956695557,-1.7319257259368896],"type":"VEC3"},{"bufferView":26,"componentType":5126,"count":501,"max":[13.169145584106445,34.201385498046875,47.72359848022461],"min":[-16.433746337890625,-20.344512939453125,-2.688190460205078],"type":"VEC3"},{"bufferView":27,"componentType":5126,"count":501,"max":[1.7353019714355469,1.3543975353240967,1.288818359375],"min":[-1.4508802890777588,-1.742971658706665,-1.50095534324646],"type":"VEC3"},{"bufferView":28,"componentType":5126,"count":501,"max":[19.35274887084961,26.01629638671875,59.684051513671875],"min":[-14.034502029418945,-10.414474487304688,-10.534900665283203],"type":"VEC3"},{"bufferView":29,"componentType":5126,"count":501,"max":[1.7308530807495117,1.3954092264175415,1.3012990951538086],"min":[-1.085052728652954,-1.7124989032745361,-1.7308648824691772],"type":"VEC3"},{"bufferView":30,"componentType":5126,"count":501,"max":[16.50191307067871,51.34758377075195,82.22309875488281],"min":[-23.542539596557617,-23.282268524169922,-2.3435211181640625],"type":"VEC3"},{"bufferView":31,"componentType":5126,"count":501,"max":[1.7418420314788818,1.5094411373138428,1.1975831985473633],"min":[-1.2932941913604736,-1.762562870979309,-1.798715353012085],"type":"VEC3"},{"bufferView":32,"componentType":5126,"count":501,"max":[18.83124351501465,83.90838623046875,103.595947265625],"min":[-26.964509963989258,-38.93611145019531,-43.2977294921875],"type":"VEC3"},{"bufferView":33,"componentType":5126,"count":501,"max":[1.7310006618499756,1.612194538116455,1.5526032447814941],"min":[-1.8063795566558838,-1.6786350011825562,-1.7275437116622925],"type":"VEC3"},{"bufferView":34,"componentType":5126,"count":501,"max":[17.77387809753418,100.12152862548828,121.58063507080078],"min":[-16.790584564208984,-47.56545639038086,-98.58164978027344],"type":"VEC3"},{"bufferView":35,"componentType":5126,"count":501,"max":[1.7793591022491455,1.6994221210479736,1.7147791385650635],"min":[-1.830409288406372,-1.683598279953003,-1.786892294883728],"type":"VEC3"},{"bufferView":36,"componentType":5126,"count":501,"max":[21.434005737304688,100.34497833251953,134.8575439453125],"min":[-8.815011978149414,-50.36117935180664,-120.85934448242188],"type":"VEC3"},{"bufferView":37,"componentType":5126,"count":501,"max":[1.7320513725280762,1.6954166889190674,1.7573745250701904],"min":[-1.7726027965545654,-1.6355533599853516,-1.7836353778839111],"type":"VEC3"},{"bufferView":38,"componentType":5126,"count":501,"max":[26.728208541870117,87.25109100341797,120.57086944580078],"min":[-6.868732929229736,-51.55889129638672,-111.22715759277344],"type":"VEC3"},{"bufferView":39,"componentType":5126,"count":501,"max":[1.7163140773773193,1.735368251800537,1.3712111711502075],"min":[-1.2736179828643799,-1.8600189685821533,-1.700972557067871],"type":"VEC3"},{"bufferView":40,"componentType":5126,"count":501,"max":[36.96118927001953,49.984169006347656,66.75497436523438],"min":[-17.27189064025879,-52.71647644042969,-103.65135192871094],"type":"VEC3"},{"bufferView":41,"componentType":5126,"count":501,"max":[1.7101080417633057,1.7155187129974365,1.4034079313278198],"min":[-1.5389549732208252,-1.9505363702774048,-1.7596616744995117],"type":"VEC3"},{"bufferView":42,"componentType":5126,"count":501,"max":[28.031105041503906,44.423545837402344,29.37133026123047],"min":[-28.05398178100586,-46.65574645996094,-86.47087097167969],"type":"VEC3"},{"bufferView":43,"componentType":5126,"count":501,"max":[1.708939552307129,1.7604336738586426,1.2897167205810547],"min":[-1.7328357696533203,-1.9244482517242432,-1.7097384929656982],"type":"VEC3"},{"bufferView":44,"componentType":5126,"count":501,"max":[14.01966667175293,32.98067855834961,29.572656631469727],"min":[-29.15408706665039,-32.51133728027344,-56.94890594482422],"type":"VEC3"},{"bufferView":45,"componentType":5126,"count":501,"max":[1.7182607650756836,1.7820594310760498,1.3736616373062134],"min":[-1.6666479110717773,-1.770131230354309,-1.6321346759796143],"type":"VEC3"},{"bufferView":46,"componentType":5126,"count":501,"max":[9.073476791381836,20.288780212402344,45.90629577636719],"min":[-22.032638549804688,-18.494613647460938,-17.202957153320312],"type":"VEC3"},{"bufferView":47,"componentType":5126,"count":501,"max":[1.6518800258636475,1.2705703973770142,1.3402003049850464],"min":[-1.649711012840271,-1.821958065032959,-1.5393610000610352],"type":"VEC3"},{"bufferView":48,"componentType":5123,"count":2952,"max":[500],"min":[0],"type":"SCALAR"},{"bufferView":49,"componentType":5126,"count":23,"max":[2.200000047683716],"min":[0],"type":"SCALAR"},{"bufferView":50,"componentType":5126,"count":506,"max":[1],"min":[0],"type":"SCALAR"}],"materials":[{"pbrMetallicRoughness":{"baseColorFactor":[0.4196078431372549,0.5686274509803921,0.4470588235294118,1],"metallicFactor":0,"roughnessFactor":1}}],"meshes":[{"weights":[0,0,0,0,0,0,0,0,0,0,0,0,0,0,0,0,0,0,0,0,0,0],"extras":{"targetNames":["bearRun_B_001","bearRun_B_002","bearRun_B_003","bearRun_B_004","bearRun_B_005","bearRun_B_006","bearRun_B_007","bearRun_B_008","bearRun_B_009","bearRun_B_010","bearRun_B_011","bearRun_B_012","bearRun_B_013","bearRun_B_014","bearRun_B_015","bearRun_B_016","bearRun_B_017","bearRun_B_018","bearRun_B_019","bearRun_B_020","bearRun_B_021","bearRun_B_022"]},"primitives":[{"mode":4,"attributes":{"POSITION":0,"NORMAL":1,"COLOR_0":2,"TEXCOORD_0":3},"targets":[{"POSITION":4,"NORMAL":5},{"POSITION":6,"NORMAL":7},{"POSITION":8,"NORMAL":9},{"POSITION":10,"NORMAL":11},{"POSITION":12,"NORMAL":13},{"POSITION":14,"NORMAL":15},{"POSITION":16,"NORMAL":17},{"POSITION":18,"NORMAL":19},{"POSITION":20,"NORMAL":21},{"POSITION":22,"NORMAL":23},{"POSITION":24,"NORMAL":25},{"POSITION":26,"NORMAL":27},{"POSITION":28,"NORMAL":29},{"POSITION":30,"NORMAL":31},{"POSITION":32,"NORMAL":33},{"POSITION":34,"NORMAL":35},{"POSITION":36,"NORMAL":37},{"POSITION":38,"NORMAL":39},{"POSITION":40,"NORMAL":41},{"POSITION":42,"NORMAL":43},{"POSITION":44,"NORMAL":45},{"POSITION":46,"NORMAL":47}],"indices":48,"material":0}]}],"animations":[{"name":"bearRun_B_","samplers":[{"input":49,"output":50,"interpolation":"LINEAR"}],"channels":[{"sampler":0,"target":{"node":0,"path":"weights"}}]}]}