{"asset":{"version":"2.0","generator":"THREE.GLTFExporter"},"scenes":[{"nodes":[0],"name":"AuxScene"}],"scene":0,"nodes":[{"mesh":0}],"bufferViews":[{"buffer":0,"byteOffset":0,"byteLength":3636,"target":34962,"byteStride":12},{"buffer":0,"byteOffset":3636,"byteLength":3636,"target":34962,"byteStride":12},{"buffer":0,"byteOffset":7272,"byteLength":3636,"target":34962,"byteStride":12},{"buffer":0,"byteOffset":10908,"byteLength":2424,"target":34962,"byteStride":8},{"buffer":0,"byteOffset":13332,"byteLength":3636,"target":34962,"byteStride":12},{"buffer":0,"byteOffset":16968,"byteLength":3636,"target":34962,"byteStride":12},{"buffer":0,"byteOffset":20604,"byteLength":3636,"target":34962,"byteStride":12},{"buffer":0,"byteOffset":24240,"byteLength":3636,"target":34962,"byteStride":12},{"buffer":0,"byteOffset":27876,"byteLength":3636,"target":34962,"byteStride":12},{"buffer":0,"byteOffset":31512,"byteLength":3636,"target":34962,"byteStride":12},{"buffer":0,"byteOffset":35148,"byteLength":3636,"target":34962,"byteStride":12},{"buffer":0,"byteOffset":38784,"byteLength":3636,"target":34962,"byteStride":12},{"buffer":0,"byteOffset":42420,"byteLength":3636,"target":34962,"byteStride":12},{"buffer":0,"byteOffset":46056,"byteLength":3636,"target":34962,"byteStride":12},{"buffer":0,"byteOffset":49692,"byteLength":3636,"target":34962,"byteStride":12},{"buffer":0,"byteOffset":53328,"byteLength":3636,"target":34962,"byteStride":12},{"buffer":0,"byteOffset":56964,"byteLength":3636,"target":34962,"byteStride":12},{"buffer":0,"byteOffset":60600,"byteLength":3636,"target":34962,"byteStride":12},{"buffer":0,"byteOffset":64236,"byteLength":3636,"target":34962,"byteStride":12},{"buffer":0,"byteOffset":67872,"byteLength":3636,"target":34962,"byteStride":12},{"buffer":0,"byteOffset":71508,"byteLength":3636,"target":34962,"byteStride":12},{"buffer":0,"byteOffset":75144,"byteLength":3636,"target":34962,"byteStride":12},{"buffer":0,"byteOffset":78780,"byteLength":3636,"target":34962,"byteStride":12},{"buffer":0,"byteOffset":82416,"byteLength":3636,"target":34962,"byteStride":12},{"buffer":0,"byteOffset":86052,"byteLength":3636,"target":34962,"byteStride":12},{"buffer":0,"byteOffset":89688,"byteLength":3636,"target":34962,"byteStride":12},{"buffer":0,"byteOffset":93324,"byteLength":3636,"target":34962,"byteStride":12},{"buffer":0,"byteOffset":96960,"byteLength":3636,"target":34962,"byteStride":12},{"buffer":0,"byteOffset":100596,"byteLength":3636,"target":34962,"byteStride":12},{"buffer":0,"byteOffset":104232,"byteLength":3636,"target":34962,"byteStride":12},{"buffer":0,"byteOffset":107868,"byteLength":3636,"target":34962,"byteStride":12},{"buffer":0,"byteOffset":111504,"byteLength":3636,"target":34962,"byteStride":12},{"buffer":0,"byteOffset":115140,"byteLength":3636,"target":34962,"byteStride":12},{"buffer":0,"byteOffset":118776,"byteLength":3636,"target":34962,"byteStride":12},{"buffer":0,"byteOffset":122412,"byteLength":3636,"target":34962,"byteStride":12},{"buffer":0,"byteOffset":126048,"byteLength":3636,"target":34962,"byteStride":12},{"buffer":0,"byteOffset":129684,"byteLength":3636,"target":34962,"byteStride":12},{"buffer":0,"byteOffset":133320,"byteLength":3636,"target":34962,"byteStride":12},{"buffer":0,"byteOffset":136956,"byteLength":3636,"target":34962,"byteStride":12},{"buffer":0,"byteOffset":140592,"byteLength":3636,"target":34962,"byteStride":12},{"buffer":0,"byteOffset":144228,"byteLength":3636,"target":34962,"byteStride":12},{"buffer":0,"byteOffset":147864,"byteLength":3636,"target":34962,"byteStride":12},{"buffer":0,"byteOffset":151500,"byteLength":3636,"target":34962,"byteStride":12},{"buffer":0,"byteOffset":155136,"byteLength":3636,"target":34962,"byteStride":12},{"buffer":0,"byteOffset":158772,"byteLength":3636,"target":34962,"byteStride":12},{"buffer":0,"byteOffset":162408,"byteLength":3636,"target":34962,"byteStride":12},{"buffer":0,"byteOffset":166044,"byteLength":3636,"target":34962,"byteStride":12},{"buffer":0,"byteOffset":169680,"byteLength":3636,"target":34962,"byteStride":12},{"buffer":0,"byteOffset":173316,"byteLength":3636,"target":34962,"byteStride":12},{"buffer":0,"byteOffset":176952,"byteLength":3636,"target":34962,"byteStride":12},{"buffer":0,"byteOffset":180588,"byteLength":3636,"target":34962,"byteStride":12},{"buffer":0,"byteOffset":184224,"byteLength":3636,"target":34962,"byteStride":12},{"buffer":0,"byteOffset":187860,"byteLength":3636,"target":34962,"byteStride":12},{"buffer":0,"byteOffset":191496,"byteLength":3636,"target":34962,"byteStride":12},{"buffer":0,"byteOffset":195132,"byteLength":3636,"target":34962,"byteStride":12},{"buffer":0,"byteOffset":198768,"byteLength":3636,"target":34962,"byteStride":12},{"buffer":0,"byteOffset":202404,"byteLength":3756,"target":34963},{"buffer":0,"byteOffset":206160,"byteLength":108},{"buffer":0,"byteOffset":206268,"byteLength":2808}],"buffers":[{"byteLength":209076,"uri":"data:application/octet-stream;base64,"}],"accessors":[{"bufferView":0,"componentType":5126,"count":303,"max":[68.90293884277344,81.31817626953125,48.01710510253906],"min":[-70.26184844970703,-12.852227210998535,-48.22931671142578],"type":"VEC3"},{"bufferView":1,"componentType":5126,"count":303,"max":[0.9945763349533081,0.9925457239151001,0.8627764582633972],"min":[-0.9948686361312866,-0.9961294531822205,-0.9424005150794983],"type":"VEC3"},{"bufferView":2,"componentType":5126,"count":303,"max":[0.8899999856948853,0.7699999809265137,0.7699999809265137],"min":[0,0,0],"type":"VEC3"},{"bufferView":3,"componentType":5126,"count":303,"max":[0.9970690011978149,0.7206640243530273],"min":[0.002930999966338277,0.27933600544929504],"type":"VEC2"},{"bufferView":4,"componentType":5126,"count":303,"max":[0,0,0],"min":[0,0,0],"type":"VEC3"},{"bufferView":5,"componentType":5126,"count":303,"max":[1.227825403213501,1.3973454236984253,1.39599609375],"min":[-1.2610098123550415,-1.818720817565918,-1.1666604280471802],"type":"VEC3"},{"bufferView":6,"componentType":5126,"count":303,"max":[22.255836486816406,1.0543460845947266,2.8521556854248047],"min":[-21.317031860351562,-18.957290649414062,-1.7213239669799805],"type":"VEC3"},{"bufferView":7,"componentType":5126,"count":303,"max":[1.028222918510437,1.4163596630096436,1.416760802268982],"min":[-0.9999710917472839,-1.8245471715927124,-1.175471305847168],"type":"VEC3"},{"bufferView":8,"componentType":5126,"count":303,"max":[38.203041076660156,1.969789981842041,5.2573041915893555],"min":[-37.000762939453125,-45.63922882080078,-2.284320831298828],"type":"VEC3"},{"bufferView":9,"componentType":5126,"count":303,"max":[1.0001413822174072,1.4288907051086426,1.4107122421264648],"min":[-1.0001747608184814,-1.8305976390838623,-1.126448154449463],"type":"VEC3"},{"bufferView":10,"componentType":5126,"count":303,"max":[44.24627685546875,2.747002124786377,6.084765434265137],"min":[-43.557823181152344,-77.09717559814453,-1.0041723251342773],"type":"VEC3"},{"bufferView":11,"componentType":5126,"count":303,"max":[0.9998582601547241,1.4305782318115234,1.3462743759155273],"min":[-1.0004856586456299,-1.8365490436553955,-1.2295355796813965],"type":"VEC3"},{"bufferView":12,"componentType":5126,"count":303,"max":[39.62346649169922,3.4420909881591797,6.975216865539551],"min":[-40.09337615966797,-108.33684539794922,-1.7621536254882812],"type":"VEC3"},{"bufferView":13,"componentType":5126,"count":303,"max":[1.306862711906433,1.4168713092803955,1.5377328395843506],"min":[-1.1838972568511963,-1.8421392440795898,-1.3656980991363525],"type":"VEC3"},{"bufferView":14,"componentType":5126,"count":303,"max":[27.37938690185547,4.096904277801514,7.769783020019531],"min":[-28.762985229492188,-134.73204040527344,-4.649657249450684],"type":"VEC3"},{"bufferView":15,"componentType":5126,"count":303,"max":[1.523436188697815,1.39357328414917,1.6554465293884277],"min":[-1.4243738651275635,-1.8472284078598022,-1.4003651142120361],"type":"VEC3"},{"bufferView":16,"componentType":5126,"count":303,"max":[10.07470703125,4.737946033477783,8.010492324829102],"min":[-11.878768920898438,-153.80685424804688,-7.270689010620117],"type":"VEC3"},{"bufferView":17,"componentType":5126,"count":303,"max":[1.670098066329956,1.3519790172576904,1.6945719718933105],"min":[-1.6172523498535156,-1.8515928983688354,-1.3890972137451172],"type":"VEC3"},{"bufferView":18,"componentType":5126,"count":303,"max":[11.970109939575195,5.495790481567383,7.603626728057861],"min":[-19.81136703491211,-164.98165893554688,-9.17552375793457],"type":"VEC3"},{"bufferView":19,"componentType":5126,"count":303,"max":[1.7520666122436523,1.3125323057174683,1.6502587795257568],"min":[-1.748248815536499,-1.8557631969451904,-1.366833209991455],"type":"VEC3"},{"bufferView":20,"componentType":5126,"count":303,"max":[25.595367431640625,6.468074798583984,6.416287899017334],"min":[-32.91542053222656,-169.0310821533203,-10.737226486206055],"type":"VEC3"},{"bufferView":21,"componentType":5126,"count":303,"max":[1.8261168003082275,1.2945685386657715,1.5054621696472168],"min":[-1.8369872570037842,-1.8602368831634521,-1.2933204174041748],"type":"VEC3"},{"bufferView":22,"componentType":5126,"count":303,"max":[43.272178649902344,7.63774299621582,6.536497116088867],"min":[-43.37179946899414,-169.455810546875,-12.106534004211426],"type":"VEC3"},{"bufferView":23,"componentType":5126,"count":303,"max":[1.8792310953140259,1.2838538885116577,1.2569115161895752],"min":[-1.8724212646484375,-1.8633687496185303,-1.1990493535995483],"type":"VEC3"},{"bufferView":24,"componentType":5126,"count":303,"max":[57.46281433105469,8.953232765197754,10.431737899780273],"min":[-55.21122360229492,-167.35430908203125,-11.28973388671875],"type":"VEC3"},{"bufferView":25,"componentType":5126,"count":303,"max":[1.874719262123108,1.2787916660308838,1.3123228549957275],"min":[-1.8560504913330078,-1.8648327589035034,-1.2452507019042969],"type":"VEC3"},{"bufferView":26,"componentType":5126,"count":303,"max":[66.45327758789062,10.354706764221191,16.40593910217285],"min":[-64.15064239501953,-163.1960906982422,-8.646888732910156],"type":"VEC3"},{"bufferView":27,"componentType":5126,"count":303,"max":[1.827513337135315,1.2799726724624634,1.4114365577697754],"min":[-1.8291254043579102,-1.8652976751327515,-1.1954798698425293],"type":"VEC3"},{"bufferView":28,"componentType":5126,"count":303,"max":[68.16568756103516,11.761275291442871,24.041683197021484],"min":[-65.49402618408203,-158.88478088378906,-5.91477108001709],"type":"VEC3"},{"bufferView":29,"componentType":5126,"count":303,"max":[1.82607102394104,1.286967158317566,1.497344970703125],"min":[-1.8060150146484375,-1.864771842956543,-1.1099671125411987],"type":"VEC3"},{"bufferView":30,"componentType":5126,"count":303,"max":[62.64598846435547,13.071672439575195,31.629138946533203],"min":[-60.56593322753906,-156.64358520507812,-3.6907730102539062],"type":"VEC3"},{"bufferView":31,"componentType":5126,"count":303,"max":[1.8213151693344116,1.297768235206604,1.5615882873535156],"min":[-1.7977747917175293,-1.8628158569335938,-1.011995553970337],"type":"VEC3"},{"bufferView":32,"componentType":5126,"count":303,"max":[51.181907653808594,13.911422729492188,36.970062255859375],"min":[-49.96836853027344,-154.1112060546875,-1.5509529113769531],"type":"VEC3"},{"bufferView":33,"componentType":5126,"count":303,"max":[1.807561993598938,1.3103419542312622,1.6021389961242676],"min":[-1.7670875787734985,-1.8588759899139404,-0.9196739196777344],"type":"VEC3"},{"bufferView":34,"componentType":5126,"count":303,"max":[35.6903190612793,14.01644515991211,39.748714447021484],"min":[-34.78850173950195,-149.01620483398438,-0.6591930389404297],"type":"VEC3"},{"bufferView":35,"componentType":5126,"count":303,"max":[1.7629799842834473,1.3236947059631348,1.623342752456665],"min":[-1.7140564918518066,-1.8526451587677002,-0.848688006401062],"type":"VEC3"},{"bufferView":36,"componentType":5126,"count":303,"max":[18.528987884521484,13.464046478271484,39.51621627807617],"min":[-17.414981842041016,-139.78419494628906,-0.922607421875],"type":"VEC3"},{"bufferView":37,"componentType":5126,"count":303,"max":[1.7173466682434082,1.346192479133606,1.6297438144683838],"min":[-1.7488994598388672,-1.8441996574401855,-0.8386529684066772],"type":"VEC3"},{"bufferView":38,"componentType":5126,"count":303,"max":[23.541419982910156,12.343689918518066,36.243675231933594],"min":[-27.455543518066406,-126.41029357910156,-1.9285697937011719],"type":"VEC3"},{"bufferView":39,"componentType":5126,"count":303,"max":[1.6224219799041748,1.3652757406234741,1.604616641998291],"min":[-1.7081141471862793,-1.8342947959899902,-0.861992597579956],"type":"VEC3"},{"bufferView":40,"componentType":5126,"count":303,"max":[32.75982666015625,10.768031120300293,30.663129806518555],"min":[-35.74861145019531,-108.41310119628906,-3.518726348876953],"type":"VEC3"},{"bufferView":41,"componentType":5126,"count":303,"max":[1.4994945526123047,1.379826545715332,1.5687830448150635],"min":[-1.5484192371368408,-1.824035882949829,-0.933557391166687],"type":"VEC3"},{"bufferView":42,"componentType":5126,"count":303,"max":[39.10669708251953,8.8862886428833,23.655078887939453],"min":[-40.5423583984375,-87.86041259765625,-4.363543510437012],"type":"VEC3"},{"bufferView":43,"componentType":5126,"count":303,"max":[1.3118209838867188,1.3883520364761353,1.522651195526123],"min":[-1.2746790647506714,-1.8145182132720947,-1.0116767883300781],"type":"VEC3"},{"bufferView":44,"componentType":5126,"count":303,"max":[39.02075958251953,6.894111633300781,16.601343154907227],"min":[-40.32830047607422,-67.45521545410156,-4.756223678588867],"type":"VEC3"},{"bufferView":45,"componentType":5126,"count":303,"max":[1.0390520095825195,1.4359533786773682,1.4765665531158447],"min":[-1.0028514862060547,-1.8069366216659546,-1.0706782341003418],"type":"VEC3"},{"bufferView":46,"componentType":5126,"count":303,"max":[32.66217041015625,5.538232803344727,8.540802001953125],"min":[-33.47015380859375,-39.199100494384766,-4.583425521850586],"type":"VEC3"},{"bufferView":47,"componentType":5126,"count":303,"max":[1.0821287631988525,1.3874956369400024,1.4121299982070923],"min":[-1.0395846366882324,-1.8025386333465576,-1.1171362400054932],"type":"VEC3"},{"bufferView":48,"componentType":5126,"count":303,"max":[19.711990356445312,4.454773902893066,2.3920092582702637],"min":[-17.49669647216797,-13.942916870117188,-3.855250358581543],"type":"VEC3"},{"bufferView":49,"componentType":5126,"count":303,"max":[1.1289961338043213,1.3822613954544067,1.340328335762024],"min":[-1.0853605270385742,-1.801481008529663,-1.1448534727096558],"type":"VEC3"},{"bufferView":50,"componentType":5126,"count":303,"max":[7.624137878417969,3.1886072158813477,0.5468201637268066],"min":[-3.5662384033203125,-3.4178619384765625,-3.162497043609619],"type":"VEC3"},{"bufferView":51,"componentType":5126,"count":303,"max":[1.1640870571136475,1.379634141921997,1.3601741790771484],"min":[-1.2064499855041504,-1.8030903339385986,-1.1502385139465332],"type":"VEC3"},{"bufferView":52,"componentType":5126,"count":303,"max":[6.921863555908203,5.346763610839844,0.2761044502258301],"min":[-3.0499839782714844,0.35331106185913086,-2.0120439529418945],"type":"VEC3"},{"bufferView":53,"componentType":5126,"count":303,"max":[1.2579131126403809,1.378569483757019,1.3906965255737305],"min":[-1.2793946266174316,-1.806549072265625,-1.1662300825119019],"type":"VEC3"},{"bufferView":54,"componentType":5126,"count":303,"max":[13.481689453125,7.767906188964844,0.0970926284790039],"min":[-14.205341339111328,-0.2703869342803955,-2.6750006675720215],"type":"VEC3"},{"bufferView":55,"componentType":5126,"count":303,"max":[1.3106597661972046,1.3805595636367798,1.4255053997039795],"min":[-1.3327078819274902,-1.811021327972412,-1.1807193756103516],"type":"VEC3"},{"bufferView":56,"componentType":5123,"count":1878,"max":[302],"min":[0],"type":"SCALAR"},{"bufferView":57,"componentType":5126,"count":27,"max":[2.5999999046325684],"min":[0],"type":"SCALAR"},{"bufferView":58,"componentType":5126,"count":702,"max":[1],"min":[0],"type":"SCALAR"}],"materials":[{"pbrMetallicRoughness":{"metallicFactor":0,"roughnessFactor":1}}],"meshes":[{"weights":[0,0,0,0,0,0,0,0,0,0,0,0,0,0,0,0,0,0,0,0,0,0,0,0,0,0],"extras":{"targetNames":["eagle_flyA_001","eagle_flyA_002","eagle_flyA_003","eagle_flyA_004","eagle_flyA_005","eagle_flyA_006","eagle_flyA_007","eagle_flyA_008","eagle_flyA_009","eagle_flyA_010","eagle_flyA_011","eagle_flyA_012","eagle_flyA_013","eagle_flyA_014","eagle_flyA_015","eagle_flyA_016","eagle_flyA_017","eagle_flyA_018","eagle_flyA_019","eagle_flyA_020","eagle_flyA_021","eagle_flyA_022","eagle_flyA_023","eagle_flyA_024","eagle_flyA_025","eagle_flyA_026"]},"primitives":[{"mode":4,"attributes":{"POSITION":0,"NORMAL":1,"COLOR_0":2,"TEXCOORD_0":3},"targets":[{"POSITION":4,"NORMAL":5},{"POSITION":6,"NORMAL":7},{"POSITION":8,"NORMAL":9},{"POSITION":10,"NORMAL":11},{"POSITION":12,"NORMAL":13},{"POSITION":14,"NORMAL":15},{"POSITION":16,"NORMAL":17},{"POSITION":18,"NORMAL":19},{"POSITION":20,"NORMAL":21},{"POSITION":22,"NORMAL":23},{"POSITION":24,"NORMAL":25},{"POSITION":26,"NORMAL":27},{"POSITION":28,"NORMAL":29},{"POSITION":30,"NORMAL":31},{"POSITION":32,"NORMAL":33},{"POSITION":34,"NORMAL":35},{"POSITION":36,"NORMAL":37},{"POSITION":38,"NORMAL":39},{"POSITION":40,"NORMAL":41},{"POSITION":42,"NORMAL":43},{"POSITION":44,"NORMAL":45},{"POSITION":46,"NORMAL":47},{"POSITION":48,"NORMAL":49},{"POSITION":50,"NORMAL":51},{"POSITION":52,"NORMAL":53},{"POSITION":54,"NORMAL":55}],"indices":56,"material":0}]}],"animations":[{"name":"eagle_flyA_","samplers":[{"input":57,"output":58,"interpolation":"LINEAR"}],"channels":[{"sampler":0,"target":{"node":0,"path":"weights"}}]}]}