{"asset":{"version":"2.0","generator":"THREE.GLTFExporter"},"scenes":[{"nodes":[0],"name":"AuxScene"}],"scene":0,"nodes":[{"mesh":0}],"bufferViews":[{"buffer":0,"byteOffset":0,"byteLength":7092,"target":34962,"byteStride":12},{"buffer":0,"byteOffset":7092,"byteLength":7092,"target":34962,"byteStride":12},{"buffer":0,"byteOffset":14184,"byteLength":7092,"target":34962,"byteStride":12},{"buffer":0,"byteOffset":21276,"byteLength":4728,"target":34962,"byteStride":8},{"buffer":0,"byteOffset":26004,"byteLength":7092,"target":34962,"byteStride":12},{"buffer":0,"byteOffset":33096,"byteLength":7092,"target":34962,"byteStride":12},{"buffer":0,"byteOffset":40188,"byteLength":7092,"target":34962,"byteStride":12},{"buffer":0,"byteOffset":47280,"byteLength":7092,"target":34962,"byteStride":12},{"buffer":0,"byteOffset":54372,"byteLength":7092,"target":34962,"byteStride":12},{"buffer":0,"byteOffset":61464,"byteLength":7092,"target":34962,"byteStride":12},{"buffer":0,"byteOffset":68556,"byteLength":7092,"target":34962,"byteStride":12},{"buffer":0,"byteOffset":75648,"byteLength":7092,"target":34962,"byteStride":12},{"buffer":0,"byteOffset":82740,"byteLength":7092,"target":34962,"byteStride":12},{"buffer":0,"byteOffset":89832,"byteLength":7092,"target":34962,"byteStride":12},{"buffer":0,"byteOffset":96924,"byteLength":7092,"target":34962,"byteStride":12},{"buffer":0,"byteOffset":104016,"byteLength":7092,"target":34962,"byteStride":12},{"buffer":0,"byteOffset":111108,"byteLength":7092,"target":34962,"byteStride":12},{"buffer":0,"byteOffset":118200,"byteLength":7092,"target":34962,"byteStride":12},{"buffer":0,"byteOffset":125292,"byteLength":7092,"target":34962,"byteStride":12},{"buffer":0,"byteOffset":132384,"byteLength":7092,"target":34962,"byteStride":12},{"buffer":0,"byteOffset":139476,"byteLength":7092,"target":34962,"byteStride":12},{"buffer":0,"byteOffset":146568,"byteLength":7092,"target":34962,"byteStride":12},{"buffer":0,"byteOffset":153660,"byteLength":7092,"target":34962,"byteStride":12},{"buffer":0,"byteOffset":160752,"byteLength":7092,"target":34962,"byteStride":12},{"buffer":0,"byteOffset":167844,"byteLength":7092,"target":34962,"byteStride":12},{"buffer":0,"byteOffset":174936,"byteLength":7092,"target":34962,"byteStride":12},{"buffer":0,"byteOffset":182028,"byteLength":7092,"target":34962,"byteStride":12},{"buffer":0,"byteOffset":189120,"byteLength":7092,"target":34962,"byteStride":12},{"buffer":0,"byteOffset":196212,"byteLength":7092,"target":34962,"byteStride":12},{"buffer":0,"byteOffset":203304,"byteLength":7092,"target":34962,"byteStride":12},{"buffer":0,"byteOffset":210396,"byteLength":7092,"target":34962,"byteStride":12},{"buffer":0,"byteOffset":217488,"byteLength":7092,"target":34962,"byteStride":12},{"buffer":0,"byteOffset":224580,"byteLength":7056,"target":34963},{"buffer":0,"byteOffset":231636,"byteLength":60},{"buffer":0,"byteOffset":231696,"byteLength":840}],"buffers":[{"byteLength":232536,"uri":"data:application/octet-stream;base64,"}],"accessors":[{"bufferView":0,"componentType":5126,"count":591,"max":[18.771255493164062,131.39529418945312,81.42835235595703],"min":[-18.771255493164062,-0.5742350220680237,-52.523563385009766],"type":"VEC3"},{"bufferView":1,"componentType":5126,"count":591,"max":[0.9999881982803345,0.9745564460754395,0.9909504652023315],"min":[-0.9996033906936646,-0.9985798001289368,-0.9956476092338562],"type":"VEC3"},{"bufferView":2,"componentType":5126,"count":591,"max":[0.8299999833106995,0.7799999713897705,0.7400000095367432],"min":[0,0,0],"type":"VEC3"},{"bufferView":3,"componentType":5126,"count":591,"max":[0.9773780107498169,0.9922119975090027],"min":[0.014499000273644924,0.0067079998552799225],"type":"VEC2"},{"bufferView":4,"componentType":5126,"count":591,"max":[0,0,0],"min":[0,0,0],"type":"VEC3"},{"bufferView":5,"componentType":5126,"count":591,"max":[1.5705745220184326,1.9518253803253174,1.3590209484100342],"min":[-1.5705745220184326,-1.3940424919128418,-1.7239511013031006],"type":"VEC3"},{"bufferView":6,"componentType":5126,"count":591,"max":[2.4377145767211914,18.49073028564453,7.235668182373047],"min":[-1.7541089057922363,-1.0599517822265625,-36.86021423339844],"type":"VEC3"},{"bufferView":7,"componentType":5126,"count":591,"max":[1.570572853088379,1.9629979133605957,1.4469408988952637],"min":[-1.570572853088379,-1.4037938117980957,-1.7048008441925049],"type":"VEC3"},{"bufferView":8,"componentType":5126,"count":591,"max":[4.505397796630859,40.33091735839844,13.179988861083984],"min":[-2.0073184967041016,-0.4016075134277344,-54.691768646240234],"type":"VEC3"},{"bufferView":9,"componentType":5126,"count":591,"max":[1.570575475692749,1.9505536556243896,1.537725806236267],"min":[-1.570575475692749,-1.4692862033843994,-1.687300205230713],"type":"VEC3"},{"bufferView":10,"componentType":5126,"count":591,"max":[4.49820613861084,46.56154251098633,21.14059829711914],"min":[-3.2043209075927734,-2.0233917236328125,-54.55801773071289],"type":"VEC3"},{"bufferView":11,"componentType":5126,"count":591,"max":[1.570572853088379,1.9368797540664673,1.6919124126434326],"min":[-1.570572853088379,-1.4676448106765747,-1.6733676195144653],"type":"VEC3"},{"bufferView":12,"componentType":5126,"count":591,"max":[4.210099220275879,48.00465393066406,26.83041000366211],"min":[-3.082871437072754,-6.0377044677734375,-50.37088394165039],"type":"VEC3"},{"bufferView":13,"componentType":5126,"count":591,"max":[1.5705751180648804,1.9353244304656982,1.8182929754257202],"min":[-1.5705751180648804,-1.4242814779281616,-1.6259878873825073],"type":"VEC3"},{"bufferView":14,"componentType":5126,"count":591,"max":[3.466435432434082,42.069305419921875,24.933666229248047],"min":[-1.6569128036499023,-17.615924835205078,-42.74089431762695],"type":"VEC3"},{"bufferView":15,"componentType":5126,"count":591,"max":[1.5705757141113281,1.9489812850952148,1.8201167583465576],"min":[-1.5705757141113281,-1.3748878240585327,-1.514393925666809],"type":"VEC3"},{"bufferView":16,"componentType":5126,"count":591,"max":[2.8354640007019043,31.76535415649414,24.674510955810547],"min":[-2.319934844970703,-33.59973907470703,-30.768707275390625],"type":"VEC3"},{"bufferView":17,"componentType":5126,"count":591,"max":[1.5705745220184326,1.9055291414260864,1.7797467708587646],"min":[-1.5705745220184326,-1.2753747701644897,-1.3509604930877686],"type":"VEC3"},{"bufferView":18,"componentType":5126,"count":591,"max":[2.197810173034668,22.357891082763672,17.49374008178711],"min":[-2.484572410583496,-36.98109817504883,-29.743305206298828],"type":"VEC3"},{"bufferView":19,"componentType":5126,"count":591,"max":[1.5705740451812744,1.5679314136505127,1.8305563926696777],"min":[-1.5705740451812744,-1.4004900455474854,-1.3479313850402832],"type":"VEC3"},{"bufferView":20,"componentType":5126,"count":591,"max":[3.0088050365448,12.891094207763672,33.37944030761719],"min":[-5.17140007019043,-37.57004165649414,-41.46802520751953],"type":"VEC3"},{"bufferView":21,"componentType":5126,"count":591,"max":[1.5705745220184326,1.359879970550537,1.8337624073028564],"min":[-1.5705745220184326,-1.4773727655410767,-1.5190227031707764],"type":"VEC3"},{"bufferView":22,"componentType":5126,"count":591,"max":[3.0585575103759766,11.378921508789062,48.529563903808594],"min":[-4.767902374267578,-37.690521240234375,-49.97323226928711],"type":"VEC3"},{"bufferView":23,"componentType":5126,"count":591,"max":[1.57057523727417,1.3626282215118408,1.8345727920532227],"min":[-1.57057523727417,-1.506697416305542,-1.680495262145996],"type":"VEC3"},{"bufferView":24,"componentType":5126,"count":591,"max":[6.020813465118408,11.699974060058594,56.77582931518555],"min":[-4.01717472076416,-34.721519470214844,-58.97132110595703],"type":"VEC3"},{"bufferView":25,"componentType":5126,"count":591,"max":[1.5705735683441162,1.3612713813781738,1.6579748392105103],"min":[-1.5705735683441162,-1.5554790496826172,-1.759109377861023],"type":"VEC3"},{"bufferView":26,"componentType":5126,"count":591,"max":[3.160665512084961,11.451423645019531,51.49208450317383],"min":[-3.125904083251953,-31.131553649902344,-58.143775939941406],"type":"VEC3"},{"bufferView":27,"componentType":5126,"count":591,"max":[1.6245439052581787,1.5289297103881836,1.3415536880493164],"min":[-1.5705745220184326,-1.4830584526062012,-1.750572919845581],"type":"VEC3"},{"bufferView":28,"componentType":5126,"count":591,"max":[3.415374755859375,9.650497436523438,35.75551986694336],"min":[-3.582498073577881,-22.543609619140625,-49.789405822753906],"type":"VEC3"},{"bufferView":29,"componentType":5126,"count":591,"max":[1.5705748796463013,1.6073544025421143,1.1311967372894287],"min":[-1.5705748796463013,-1.33819580078125,-1.7580292224884033],"type":"VEC3"},{"bufferView":30,"componentType":5126,"count":591,"max":[2.128446578979492,4.129558563232422,20.58209991455078],"min":[-1.6363110542297363,-13.40460205078125,-22.7614803314209],"type":"VEC3"},{"bufferView":31,"componentType":5126,"count":591,"max":[1.5705742835998535,1.7312909364700317,1.149881362915039],"min":[-1.5705742835998535,-1.3884429931640625,-1.7444629669189453],"type":"VEC3"},{"bufferView":32,"componentType":5123,"count":3528,"max":[590],"min":[0],"type":"SCALAR"},{"bufferView":33,"componentType":5126,"count":15,"max":[1.399999976158142],"min":[0],"type":"SCALAR"},{"bufferView":34,"componentType":5126,"count":210,"max":[1],"min":[0],"type":"SCALAR"}],"materials":[{"pbrMetallicRoughness":{"baseColorFactor":[0.4196078431372549,0.5686274509803921,0.4470588235294118,1],"metallicFactor":0,"roughnessFactor":1}}],"meshes":[{"weights":[0,0,0,0,0,0,0,0,0,0,0,0,0,0],"extras":{"targetNames":["elkRun_B_001","elkRun_B_002","elkRun_B_003","elkRun_B_004","elkRun_B_005","elkRun_B_006","elkRun_B_007","elkRun_B_008","elkRun_B_009","elkRun_B_010","elkRun_B_011","elkRun_B_012","elkRun_B_013","elkRun_B_014"]},"primitives":[{"mode":4,"attributes":{"POSITION":0,"NORMAL":1,"COLOR_0":2,"TEXCOORD_0":3},"targets":[{"POSITION":4,"NORMAL":5},{"POSITION":6,"NORMAL":7},{"POSITION":8,"NORMAL":9},{"POSITION":10,"NORMAL":11},{"POSITION":12,"NORMAL":13},{"POSITION":14,"NORMAL":15},{"POSITION":16,"NORMAL":17},{"POSITION":18,"NORMAL":19},{"POSITION":20,"NORMAL":21},{"POSITION":22,"NORMAL":23},{"POSITION":24,"NORMAL":25},{"POSITION":26,"NORMAL":27},{"POSITION":28,"NORMAL":29},{"POSITION":30,"NORMAL":31}],"indices":32,"material":0}]}],"animations":[{"name":"elkRun_B_","samplers":[{"input":33,"output":34,"interpolation":"LINEAR"}],"channels":[{"sampler":0,"target":{"node":0,"path":"weights"}}]}]}