{"asset":{"version":"2.0","generator":"THREE.GLTFExporter"},"scenes":[{"nodes":[0],"name":"AuxScene"}],"scene":0,"nodes":[{"mesh":0}],"bufferViews":[{"buffer":0,"byteOffset":0,"byteLength":6384,"target":34962,"byteStride":12},{"buffer":0,"byteOffset":6384,"byteLength":6384,"target":34962,"byteStride":12},{"buffer":0,"byteOffset":12768,"byteLength":6384,"target":34962,"byteStride":12},{"buffer":0,"byteOffset":19152,"byteLength":4256,"target":34962,"byteStride":8},{"buffer":0,"byteOffset":23408,"byteLength":6384,"target":34962,"byteStride":12},{"buffer":0,"byteOffset":29792,"byteLength":6384,"target":34962,"byteStride":12},{"buffer":0,"byteOffset":36176,"byteLength":6384,"target":34962,"byteStride":12},{"buffer":0,"byteOffset":42560,"byteLength":6384,"target":34962,"byteStride":12},{"buffer":0,"byteOffset":48944,"byteLength":6384,"target":34962,"byteStride":12},{"buffer":0,"byteOffset":55328,"byteLength":6384,"target":34962,"byteStride":12},{"buffer":0,"byteOffset":61712,"byteLength":6384,"target":34962,"byteStride":12},{"buffer":0,"byteOffset":68096,"byteLength":6384,"target":34962,"byteStride":12},{"buffer":0,"byteOffset":74480,"byteLength":6384,"target":34962,"byteStride":12},{"buffer":0,"byteOffset":80864,"byteLength":6384,"target":34962,"byteStride":12},{"buffer":0,"byteOffset":87248,"byteLength":6384,"target":34962,"byteStride":12},{"buffer":0,"byteOffset":93632,"byteLength":6384,"target":34962,"byteStride":12},{"buffer":0,"byteOffset":100016,"byteLength":6384,"target":34962,"byteStride":12},{"buffer":0,"byteOffset":106400,"byteLength":6384,"target":34962,"byteStride":12},{"buffer":0,"byteOffset":112784,"byteLength":6384,"target":34962,"byteStride":12},{"buffer":0,"byteOffset":119168,"byteLength":6384,"target":34962,"byteStride":12},{"buffer":0,"byteOffset":125552,"byteLength":6384,"target":34962,"byteStride":12},{"buffer":0,"byteOffset":131936,"byteLength":6384,"target":34962,"byteStride":12},{"buffer":0,"byteOffset":138320,"byteLength":6384,"target":34962,"byteStride":12},{"buffer":0,"byteOffset":144704,"byteLength":6384,"target":34962,"byteStride":12},{"buffer":0,"byteOffset":151088,"byteLength":5904,"target":34963},{"buffer":0,"byteOffset":156992,"byteLength":44},{"buffer":0,"byteOffset":157036,"byteLength":440}],"buffers":[{"byteLength":157476,"uri":"data:application/octet-stream;base64,"}],"accessors":[{"bufferView":0,"componentType":5126,"count":532,"max":[10.21898365020752,46.784019470214844,40.26614761352539],"min":[-9.146527290344238,6.219172954559326,-66.55940246582031],"type":"VEC3"},{"bufferView":1,"componentType":5126,"count":532,"max":[0.9990256428718567,0.9912561178207397,0.9975540637969971],"min":[-0.998927652835846,-0.9935857057571411,-0.9928818941116333],"type":"VEC3"},{"bufferView":2,"componentType":5126,"count":532,"max":[1,0.6899999976158142,0.5099999904632568],"min":[0,0,0],"type":"VEC3"},{"bufferView":3,"componentType":5126,"count":532,"max":[0.9705640077590942,0.9922119975090027],"min":[0.014794000424444675,0.0067079998552799225],"type":"VEC2"},{"bufferView":4,"componentType":5126,"count":532,"max":[0,0,0],"min":[0,0,0],"type":"VEC3"},{"bufferView":5,"componentType":5126,"count":532,"max":[1.425710678100586,1.716536045074463,1.4572749137878418],"min":[-1.205464482307434,-1.3669495582580566,-1.0771818161010742],"type":"VEC3"},{"bufferView":6,"componentType":5126,"count":532,"max":[0.9690189361572266,5.0834808349609375,16.376880645751953],"min":[-1.991349697113037,-9.872236251831055,-4.858661651611328],"type":"VEC3"},{"bufferView":7,"componentType":5126,"count":532,"max":[1.6262309551239014,1.7612826824188232,1.1412900686264038],"min":[-1.5750770568847656,-1.63570237159729,-1.1652323007583618],"type":"VEC3"},{"bufferView":8,"componentType":5126,"count":532,"max":[1.4275970458984375,10.781856536865234,25.321279525756836],"min":[-2.30239200592041,-17.589813232421875,-23.793819427490234],"type":"VEC3"},{"bufferView":9,"componentType":5126,"count":532,"max":[1.7019617557525635,1.76146399974823,1.001708984375],"min":[-1.2159934043884277,-1.8642289638519287,-1.2341384887695312],"type":"VEC3"},{"bufferView":10,"componentType":5126,"count":532,"max":[1.3178281784057617,14.727581024169922,33.614837646484375],"min":[-2.229644298553467,-18.637157440185547,-39.7891731262207],"type":"VEC3"},{"bufferView":11,"componentType":5126,"count":532,"max":[1.778682827949524,1.8768068552017212,1.2450954914093018],"min":[-1.0782603025436401,-1.8919105529785156,-1.236818790435791],"type":"VEC3"},{"bufferView":12,"componentType":5126,"count":532,"max":[1.8964085578918457,11.556324005126953,34.19571304321289],"min":[-2.32303524017334,-19.900588989257812,-54.41539764404297],"type":"VEC3"},{"bufferView":13,"componentType":5126,"count":532,"max":[1.6617248058319092,1.9006297588348389,1.3877357244491577],"min":[-1.258039951324463,-1.8783260583877563,-1.454408884048462],"type":"VEC3"},{"bufferView":14,"componentType":5126,"count":532,"max":[0.6121020317077637,8.105791091918945,34.97175979614258],"min":[-3.2932982444763184,-16.637821197509766,-50.4808464050293],"type":"VEC3"},{"bufferView":15,"componentType":5126,"count":532,"max":[1.619473934173584,1.9195358753204346,1.6589915752410889],"min":[-1.3319776058197021,-1.8332691192626953,-1.7313438653945923],"type":"VEC3"},{"bufferView":16,"componentType":5126,"count":532,"max":[0.41620302200317383,7.765411376953125,22.856658935546875],"min":[-2.639658212661743,-16.062129974365234,-38.71182632446289],"type":"VEC3"},{"bufferView":17,"componentType":5126,"count":532,"max":[1.4993418455123901,1.7975201606750488,1.7269669771194458],"min":[-1.367672324180603,-1.8916863203048706,-1.848001480102539],"type":"VEC3"},{"bufferView":18,"componentType":5126,"count":532,"max":[0.6437187194824219,8.23801040649414,8.206241607666016],"min":[-1.784383773803711,-17.394344329833984,-25.621417999267578],"type":"VEC3"},{"bufferView":19,"componentType":5126,"count":532,"max":[1.559998869895935,1.6106452941894531,1.7110545635223389],"min":[-1.2944444417953491,-1.8714113235473633,-1.8050684928894043],"type":"VEC3"},{"bufferView":20,"componentType":5126,"count":532,"max":[0.9983367919921875,6.6895751953125,4.025394439697266],"min":[-3.268781900405884,-16.509544372558594,-23.240781784057617],"type":"VEC3"},{"bufferView":21,"componentType":5126,"count":532,"max":[1.3478031158447266,1.6207020282745361,1.7041125297546387],"min":[-1.0443212985992432,-1.533111810684204,-1.5002508163452148],"type":"VEC3"},{"bufferView":22,"componentType":5126,"count":532,"max":[0.4515872001647949,4.937948226928711,3.4295272827148438],"min":[-3.218291997909546,-11.497123718261719,-14.320453643798828],"type":"VEC3"},{"bufferView":23,"componentType":5126,"count":532,"max":[1.3598767518997192,1.6589076519012451,1.5970358848571777],"min":[-1.3433445692062378,-1.3225024938583374,-1.534508228302002],"type":"VEC3"},{"bufferView":24,"componentType":5123,"count":2952,"max":[531],"min":[0],"type":"SCALAR"},{"bufferView":25,"componentType":5126,"count":11,"max":[1],"min":[0],"type":"SCALAR"},{"bufferView":26,"componentType":5126,"count":110,"max":[1],"min":[0],"type":"SCALAR"}],"materials":[{"pbrMetallicRoughness":{"baseColorFactor":[0.4196078431372549,0.5686274509803921,0.4470588235294118,1],"metallicFactor":0,"roughnessFactor":1}}],"meshes":[{"weights":[0,0,0,0,0,0,0,0,0,0],"extras":{"targetNames":["foxRun_A_001","foxRun_A_002","foxRun_A_003","foxRun_A_004","foxRun_A_005","foxRun_A_006","foxRun_A_007","foxRun_A_008","foxRun_A_009","foxRun_A_010"]},"primitives":[{"mode":4,"attributes":{"POSITION":0,"NORMAL":1,"COLOR_0":2,"TEXCOORD_0":3},"targets":[{"POSITION":4,"NORMAL":5},{"POSITION":6,"NORMAL":7},{"POSITION":8,"NORMAL":9},{"POSITION":10,"NORMAL":11},{"POSITION":12,"NORMAL":13},{"POSITION":14,"NORMAL":15},{"POSITION":16,"NORMAL":17},{"POSITION":18,"NORMAL":19},{"POSITION":20,"NORMAL":21},{"POSITION":22,"NORMAL":23}],"indices":24,"material":0}]}],"animations":[{"name":"foxRun_A_","samplers":[{"input":25,"output":26,"interpolation":"LINEAR"}],"channels":[{"sampler":0,"target":{"node":0,"path":"weights"}}]}]}