<?xml version="1.0" encoding="UTF-8" standalone="no"?>
<svg
   width="562.88556"
   height="561.13739"
   version="1.1"
   id="svg24"
   xmlns="http://www.w3.org/2000/svg"
   xmlns:svg="http://www.w3.org/2000/svg">
  <defs
     id="defs28" />
  <path
     fill="#eeeeee"
     d="m 309.6872,295.79886 120.60726,206.78941 23.2205,-42.34402 a 71.42969,71.42969 0 0 1 71.4218,-123.70626 l 24.125,-41.78571 z m 0.7548,-32.77845 239.38846,-1.05434 -25.0607,-41.28152 A 71.42969,71.42969 0 0 1 453.34786,96.978289 L 429.22285,55.19258 Z m -28.00934,-17.87053 118.78125,-206.780751 -48.28125,-5e-4 a 71.42969,71.42969 0 0 1 -142.84375,0 h -48.25 z M 253.66829,261.7124 133.06103,54.922989 109.16009,96.864909 A 71.497559,71.497559 0 0 1 37.981267,220.88579 l -23.68758,41.87318 z m -0.75497,32.77925 -239.388503,1.05434 24.36089,41.54397 a 71.484129,71.484129 0 0 1 72.121763,123.44381 l 24.125,41.7857 z m 28.0094,17.04473 -118.78125,206.78075 48.28125,5e-4 a 71.42969,71.42969 0 0 1 142.84375,0 h 48.25 z"
     id="path6" />
  <g
     fill="#2b0000"
     id="g22"
     transform="translate(-559.38934,-16.606871)">
    <circle
       cx="841.80487"
       cy="535.211"
       r="25"
       id="circle8" />
    <circle
       cx="1048.6682"
       cy="415.44803"
       r="25"
       id="circle10" />
    <circle
       cx="1047.9998"
       cy="175.4272"
       r="25"
       id="circle12" />
    <circle
       cx="840.81506"
       cy="55.169338"
       r="25"
       id="circle14" />
    <circle
       cx="632.96198"
       cy="176.41698"
       r="25"
       id="circle16" />
    <circle
       cx="633.95178"
       cy="415.44803"
       r="25"
       id="circle18" />
    <circle
       cx="841.71906"
       cy="297.70898"
       r="25"
       id="circle20" />
  </g>
</svg>
