{"asset":{"version":"2.0","generator":"THREE.GLTFExporter"},"scenes":[{"nodes":[0],"name":"AuxScene"}],"scene":0,"nodes":[{"mesh":0}],"bufferViews":[{"buffer":0,"byteOffset":0,"byteLength":3384,"target":34962,"byteStride":12},{"buffer":0,"byteOffset":3384,"byteLength":3384,"target":34962,"byteStride":12},{"buffer":0,"byteOffset":6768,"byteLength":3384,"target":34962,"byteStride":12},{"buffer":0,"byteOffset":10152,"byteLength":2256,"target":34962,"byteStride":8},{"buffer":0,"byteOffset":12408,"byteLength":3384,"target":34962,"byteStride":12},{"buffer":0,"byteOffset":15792,"byteLength":3384,"target":34962,"byteStride":12},{"buffer":0,"byteOffset":19176,"byteLength":3384,"target":34962,"byteStride":12},{"buffer":0,"byteOffset":22560,"byteLength":3384,"target":34962,"byteStride":12},{"buffer":0,"byteOffset":25944,"byteLength":3384,"target":34962,"byteStride":12},{"buffer":0,"byteOffset":29328,"byteLength":3384,"target":34962,"byteStride":12},{"buffer":0,"byteOffset":32712,"byteLength":3384,"target":34962,"byteStride":12},{"buffer":0,"byteOffset":36096,"byteLength":3384,"target":34962,"byteStride":12},{"buffer":0,"byteOffset":39480,"byteLength":3384,"target":34962,"byteStride":12},{"buffer":0,"byteOffset":42864,"byteLength":3384,"target":34962,"byteStride":12},{"buffer":0,"byteOffset":46248,"byteLength":3384,"target":34962,"byteStride":12},{"buffer":0,"byteOffset":49632,"byteLength":3384,"target":34962,"byteStride":12},{"buffer":0,"byteOffset":53016,"byteLength":3384,"target":34962,"byteStride":12},{"buffer":0,"byteOffset":56400,"byteLength":3384,"target":34962,"byteStride":12},{"buffer":0,"byteOffset":59784,"byteLength":3384,"target":34962,"byteStride":12},{"buffer":0,"byteOffset":63168,"byteLength":3384,"target":34962,"byteStride":12},{"buffer":0,"byteOffset":66552,"byteLength":3384,"target":34962,"byteStride":12},{"buffer":0,"byteOffset":69936,"byteLength":3384,"target":34962,"byteStride":12},{"buffer":0,"byteOffset":73320,"byteLength":3384,"target":34962,"byteStride":12},{"buffer":0,"byteOffset":76704,"byteLength":3384,"target":34962,"byteStride":12},{"buffer":0,"byteOffset":80088,"byteLength":3384,"target":34962,"byteStride":12},{"buffer":0,"byteOffset":83472,"byteLength":3384,"target":34962,"byteStride":12},{"buffer":0,"byteOffset":86856,"byteLength":3384,"target":34962,"byteStride":12},{"buffer":0,"byteOffset":90240,"byteLength":3384,"target":34962,"byteStride":12},{"buffer":0,"byteOffset":93624,"byteLength":3384,"target":34962,"byteStride":12},{"buffer":0,"byteOffset":97008,"byteLength":3384,"target":34962,"byteStride":12},{"buffer":0,"byteOffset":100392,"byteLength":3384,"target":34962,"byteStride":12},{"buffer":0,"byteOffset":103776,"byteLength":3384,"target":34962,"byteStride":12},{"buffer":0,"byteOffset":107160,"byteLength":3384,"target":34962,"byteStride":12},{"buffer":0,"byteOffset":110544,"byteLength":3384,"target":34962,"byteStride":12},{"buffer":0,"byteOffset":113928,"byteLength":3384,"target":34962,"byteStride":12},{"buffer":0,"byteOffset":117312,"byteLength":3384,"target":34962,"byteStride":12},{"buffer":0,"byteOffset":120696,"byteLength":3384,"target":34962,"byteStride":12},{"buffer":0,"byteOffset":124080,"byteLength":3384,"target":34962,"byteStride":12},{"buffer":0,"byteOffset":127464,"byteLength":3384,"target":34962,"byteStride":12},{"buffer":0,"byteOffset":130848,"byteLength":3384,"target":34962,"byteStride":12},{"buffer":0,"byteOffset":134232,"byteLength":3384,"target":34962,"byteStride":12},{"buffer":0,"byteOffset":137616,"byteLength":3384,"target":34962,"byteStride":12},{"buffer":0,"byteOffset":141000,"byteLength":3384,"target":34962,"byteStride":12},{"buffer":0,"byteOffset":144384,"byteLength":3384,"target":34962,"byteStride":12},{"buffer":0,"byteOffset":147768,"byteLength":3756,"target":34963},{"buffer":0,"byteOffset":151524,"byteLength":84},{"buffer":0,"byteOffset":151608,"byteLength":1680}],"buffers":[{"byteLength":153288,"uri":"data:application/octet-stream;base64,"}],"accessors":[{"bufferView":0,"componentType":5126,"count":282,"max":[56.704837799072266,51.20932388305664,25.431522369384766],"min":[-56.70481872558594,-7.722928047180176,-30.643953323364258],"type":"VEC3"},{"bufferView":1,"componentType":5126,"count":282,"max":[0.9584612846374512,0.9951310157775879,0.9945820569992065],"min":[-0.969482421875,-0.9998772740364075,-0.998371958732605],"type":"VEC3"},{"bufferView":2,"componentType":5126,"count":282,"max":[0.8299999833106995,0.800000011920929,0.7599999904632568],"min":[0.09000000357627869,0.10999999940395355,0.10999999940395355],"type":"VEC3"},{"bufferView":3,"componentType":5126,"count":282,"max":[0.9730269908905029,0.6965939998626709],"min":[0.026971999555826187,0.3034060001373291],"type":"VEC2"},{"bufferView":4,"componentType":5126,"count":282,"max":[0,0,0],"min":[0,0,0],"type":"VEC3"},{"bufferView":5,"componentType":5126,"count":282,"max":[1.3401694297790527,1.834610939025879,1.5241742134094238],"min":[-1.3401696681976318,-1.5904688835144043,-1.2420504093170166],"type":"VEC3"},{"bufferView":6,"componentType":5126,"count":282,"max":[1.258890151977539,-0.6473569869995117,1.6143980026245117],"min":[-1.2589092254638672,-2.1705760955810547,-0.44226789474487305],"type":"VEC3"},{"bufferView":7,"componentType":5126,"count":282,"max":[1.3799816370010376,1.8349018096923828,1.5286167860031128],"min":[-1.379976511001587,-1.5916202068328857,-1.287636637687683],"type":"VEC3"},{"bufferView":8,"componentType":5126,"count":282,"max":[6.260337829589844,-0.7580039501190186,7.2981367111206055],"min":[-6.259723663330078,-10.756473541259766,-0.7374954223632812],"type":"VEC3"},{"bufferView":9,"componentType":5126,"count":282,"max":[1.2676929235458374,1.8343920707702637,1.5784668922424316],"min":[-1.2676749229431152,-1.5947152376174927,-1.3800894021987915],"type":"VEC3"},{"bufferView":10,"componentType":5126,"count":282,"max":[12.934085845947266,-0.47227001190185547,15.061654090881348],"min":[-12.933662414550781,-28.704360961914062,-1.1560859680175781],"type":"VEC3"},{"bufferView":11,"componentType":5126,"count":282,"max":[1.0137674808502197,1.8330628871917725,1.655496597290039],"min":[-1.0923717021942139,-1.5992255210876465,-1.4806894063949585],"type":"VEC3"},{"bufferView":12,"componentType":5126,"count":282,"max":[13.313724517822266,0.16760897636413574,21.056171417236328],"min":[-13.313728332519531,-52.79161834716797,-1.3704681396484375],"type":"VEC3"},{"bufferView":13,"componentType":5126,"count":282,"max":[0.9577015042304993,1.8309195041656494,1.7176527976989746],"min":[-1.0922391414642334,-1.6046323776245117,-1.608565330505371],"type":"VEC3"},{"bufferView":14,"componentType":5126,"count":282,"max":[5.770475387573242,1.3121720552444458,21.884449005126953],"min":[-5.770912170410156,-77.18093872070312,-1.3534870147705078],"type":"VEC3"},{"bufferView":15,"componentType":5126,"count":282,"max":[1.3420279026031494,1.828768014907837,1.7275817394256592],"min":[-1.342015266418457,-1.610425353050232,-1.685766577720642],"type":"VEC3"},{"bufferView":16,"componentType":5126,"count":282,"max":[12.55691146850586,2.791250228881836,17.71556282043457],"min":[-12.562313079833984,-94.84555053710938,-1.129343032836914],"type":"VEC3"},{"bufferView":17,"componentType":5126,"count":282,"max":[1.6267967224121094,1.8258798122406006,1.6804651021957397],"min":[-1.626741886138916,-1.6160664558410645,-1.7434349060058594],"type":"VEC3"},{"bufferView":18,"componentType":5126,"count":282,"max":[29.39459991455078,4.411291122436523,11.340490341186523],"min":[-29.403947830200195,-101.50119018554688,-0.7201519012451172],"type":"VEC3"},{"bufferView":19,"componentType":5126,"count":282,"max":[1.7108062505722046,1.8194618225097656,1.597510814666748],"min":[-1.7107999324798584,-1.6210119724273682,-1.7891035079956055],"type":"VEC3"},{"bufferView":20,"componentType":5126,"count":282,"max":[38.48622512817383,5.979366302490234,6.6762213706970215],"min":[-38.49064636230469,-100.80047607421875,-0.14757728576660156],"type":"VEC3"},{"bufferView":21,"componentType":5126,"count":282,"max":[1.6922495365142822,1.8092762231826782,1.5161793231964111],"min":[-1.6922683715820312,-1.6247072219848633,-1.8163681030273438],"type":"VEC3"},{"bufferView":22,"componentType":5126,"count":282,"max":[41.28781509399414,7.818268299102783,6.9656548500061035],"min":[-41.27830123901367,-98.01156616210938,0.514411449432373],"type":"VEC3"},{"bufferView":23,"componentType":5126,"count":282,"max":[1.6934553384780884,1.7986335754394531,1.450829029083252],"min":[-1.6707102060317993,-1.6265654563903809,-1.8381645679473877],"type":"VEC3"},{"bufferView":24,"componentType":5126,"count":282,"max":[41.672000885009766,9.787506103515625,6.7409796714782715],"min":[-41.652671813964844,-94.56135559082031,-3.427940845489502],"type":"VEC3"},{"bufferView":25,"componentType":5126,"count":282,"max":[1.6759424209594727,1.7916381359100342,1.4069297313690186],"min":[-1.6565290689468384,-1.6259981393814087,-1.8509401082992554],"type":"VEC3"},{"bufferView":26,"componentType":5126,"count":282,"max":[40.457374572753906,11.393959045410156,6.11234712600708],"min":[-40.43248748779297,-91.42042541503906,-5.573760986328125],"type":"VEC3"},{"bufferView":27,"componentType":5126,"count":282,"max":[1.6864409446716309,1.791959285736084,1.3996140956878662],"min":[-1.6866295337677002,-1.6227811574935913,-1.8542060852050781],"type":"VEC3"},{"bufferView":28,"componentType":5126,"count":282,"max":[36.97074890136719,12.478525161743164,6.02119255065918],"min":[-36.94396209716797,-88.76712036132812,-6.75984001159668],"type":"VEC3"},{"bufferView":29,"componentType":5126,"count":282,"max":[1.724455714225769,1.7962884902954102,1.404968023300171],"min":[-1.724615454673767,-1.6183862686157227,-1.8481374979019165],"type":"VEC3"},{"bufferView":30,"componentType":5126,"count":282,"max":[30.611223220825195,12.903661727905273,5.854281902313232],"min":[-30.585641860961914,-86.0526351928711,-7.850555896759033],"type":"VEC3"},{"bufferView":31,"componentType":5126,"count":282,"max":[1.7520548105239868,1.801326036453247,1.4137448072433472],"min":[-1.7521058320999146,-1.6135790348052979,-1.825427770614624],"type":"VEC3"},{"bufferView":32,"componentType":5126,"count":282,"max":[21.565811157226562,12.489492416381836,5.408556938171387],"min":[-21.54425811767578,-82.37306213378906,-8.551591873168945],"type":"VEC3"},{"bufferView":33,"componentType":5126,"count":282,"max":[1.7457795143127441,1.8072736263275146,1.4312313795089722],"min":[-1.7456865310668945,-1.6086593866348267,-1.7514368295669556],"type":"VEC3"},{"bufferView":34,"componentType":5126,"count":282,"max":[9.896747589111328,11.216584205627441,4.6072468757629395],"min":[-9.889945983886719,-75.97317504882812,-8.436901092529297],"type":"VEC3"},{"bufferView":35,"componentType":5126,"count":282,"max":[1.6607636213302612,1.8135520219802856,1.4382109642028809],"min":[-1.6605892181396484,-1.6039069890975952,-1.6189146041870117],"type":"VEC3"},{"bufferView":36,"componentType":5126,"count":282,"max":[7.025638580322266,9.478209495544434,3.6820929050445557],"min":[-7.025562286376953,-64.04280090332031,-7.013683795928955],"type":"VEC3"},{"bufferView":37,"componentType":5126,"count":282,"max":[1.8687975406646729,1.819742202758789,1.4470410346984863],"min":[-1.7336719036102295,-1.599571943283081,-1.4000989198684692],"type":"VEC3"},{"bufferView":38,"componentType":5126,"count":282,"max":[13.43832778930664,7.006531238555908,2.673630952835083],"min":[-13.442138671875,-45.195526123046875,-4.333917617797852],"type":"VEC3"},{"bufferView":39,"componentType":5126,"count":282,"max":[1.9017369747161865,1.8255208730697632,1.4914294481277466],"min":[-1.7669026851654053,-1.5958706140518188,-1.305590271949768],"type":"VEC3"},{"bufferView":40,"componentType":5126,"count":282,"max":[14.160808563232422,4.302823543548584,1.6545240879058838],"min":[-14.158523559570312,-23.607290267944336,-2.6447129249572754],"type":"VEC3"},{"bufferView":41,"componentType":5126,"count":282,"max":[1.6329150199890137,1.829870581626892,1.5290048122406006],"min":[-1.4397879838943481,-1.5929962396621704,-1.2600507736206055],"type":"VEC3"},{"bufferView":42,"componentType":5126,"count":282,"max":[7.033210754394531,2.002148151397705,0.7373859882354736],"min":[-7.03082275390625,-7.271442413330078,-1.2545890808105469],"type":"VEC3"},{"bufferView":43,"componentType":5126,"count":282,"max":[1.2545397281646729,1.8328911066055298,1.5369527339935303],"min":[-1.1911160945892334,-1.5911321640014648,-1.2367945909500122],"type":"VEC3"},{"bufferView":44,"componentType":5123,"count":1878,"max":[281],"min":[0],"type":"SCALAR"},{"bufferView":45,"componentType":5126,"count":21,"max":[2],"min":[0],"type":"SCALAR"},{"bufferView":46,"componentType":5126,"count":420,"max":[1],"min":[0],"type":"SCALAR"}],"materials":[{"pbrMetallicRoughness":{"metallicFactor":0,"roughnessFactor":1}}],"meshes":[{"weights":[0,0,0,0,0,0,0,0,0,0,0,0,0,0,0,0,0,0,0,0],"extras":{"targetNames":["owl_flyA_000","owl_flyA_001","owl_flyA_002","owl_flyA_003","owl_flyA_004","owl_flyA_005","owl_flyA_006","owl_flyA_007","owl_flyA_008","owl_flyA_009","owl_flyA_010","owl_flyA_011","owl_flyA_012","owl_flyA_013","owl_flyA_014","owl_flyA_015","owl_flyA_016","owl_flyA_017","owl_flyA_018","owl_flyA_019"]},"primitives":[{"mode":4,"attributes":{"POSITION":0,"NORMAL":1,"COLOR_0":2,"TEXCOORD_0":3},"targets":[{"POSITION":4,"NORMAL":5},{"POSITION":6,"NORMAL":7},{"POSITION":8,"NORMAL":9},{"POSITION":10,"NORMAL":11},{"POSITION":12,"NORMAL":13},{"POSITION":14,"NORMAL":15},{"POSITION":16,"NORMAL":17},{"POSITION":18,"NORMAL":19},{"POSITION":20,"NORMAL":21},{"POSITION":22,"NORMAL":23},{"POSITION":24,"NORMAL":25},{"POSITION":26,"NORMAL":27},{"POSITION":28,"NORMAL":29},{"POSITION":30,"NORMAL":31},{"POSITION":32,"NORMAL":33},{"POSITION":34,"NORMAL":35},{"POSITION":36,"NORMAL":37},{"POSITION":38,"NORMAL":39},{"POSITION":40,"NORMAL":41},{"POSITION":42,"NORMAL":43}],"indices":44,"material":0}]}],"animations":[{"name":"owl_flyA_","samplers":[{"input":45,"output":46,"interpolation":"LINEAR"}],"channels":[{"sampler":0,"target":{"node":0,"path":"weights"}}]}]}