{"asset":{"version":"2.0","generator":"THREE.GLTFExporter"},"scenes":[{"nodes":[0],"name":"AuxScene"}],"scene":0,"nodes":[{"mesh":0}],"bufferViews":[{"buffer":0,"byteOffset":0,"byteLength":3276,"target":34962,"byteStride":12},{"buffer":0,"byteOffset":3276,"byteLength":3276,"target":34962,"byteStride":12},{"buffer":0,"byteOffset":6552,"byteLength":3276,"target":34962,"byteStride":12},{"buffer":0,"byteOffset":9828,"byteLength":2184,"target":34962,"byteStride":8},{"buffer":0,"byteOffset":12012,"byteLength":3276,"target":34962,"byteStride":12},{"buffer":0,"byteOffset":15288,"byteLength":3276,"target":34962,"byteStride":12},{"buffer":0,"byteOffset":18564,"byteLength":3276,"target":34962,"byteStride":12},{"buffer":0,"byteOffset":21840,"byteLength":3276,"target":34962,"byteStride":12},{"buffer":0,"byteOffset":25116,"byteLength":3276,"target":34962,"byteStride":12},{"buffer":0,"byteOffset":28392,"byteLength":3276,"target":34962,"byteStride":12},{"buffer":0,"byteOffset":31668,"byteLength":3276,"target":34962,"byteStride":12},{"buffer":0,"byteOffset":34944,"byteLength":3276,"target":34962,"byteStride":12},{"buffer":0,"byteOffset":38220,"byteLength":3276,"target":34962,"byteStride":12},{"buffer":0,"byteOffset":41496,"byteLength":3276,"target":34962,"byteStride":12},{"buffer":0,"byteOffset":44772,"byteLength":3276,"target":34962,"byteStride":12},{"buffer":0,"byteOffset":48048,"byteLength":3276,"target":34962,"byteStride":12},{"buffer":0,"byteOffset":51324,"byteLength":3276,"target":34962,"byteStride":12},{"buffer":0,"byteOffset":54600,"byteLength":3276,"target":34962,"byteStride":12},{"buffer":0,"byteOffset":57876,"byteLength":3276,"target":34962,"byteStride":12},{"buffer":0,"byteOffset":61152,"byteLength":3276,"target":34962,"byteStride":12},{"buffer":0,"byteOffset":64428,"byteLength":3276,"target":34962,"byteStride":12},{"buffer":0,"byteOffset":67704,"byteLength":3276,"target":34962,"byteStride":12},{"buffer":0,"byteOffset":70980,"byteLength":3276,"target":34962,"byteStride":12},{"buffer":0,"byteOffset":74256,"byteLength":3276,"target":34962,"byteStride":12},{"buffer":0,"byteOffset":77532,"byteLength":3276,"target":34962,"byteStride":12},{"buffer":0,"byteOffset":80808,"byteLength":3276,"target":34962,"byteStride":12},{"buffer":0,"byteOffset":84084,"byteLength":3756,"target":34963},{"buffer":0,"byteOffset":87840,"byteLength":48},{"buffer":0,"byteOffset":87888,"byteLength":528}],"buffers":[{"byteLength":88416,"uri":"data:application/octet-stream;base64,"}],"accessors":[{"bufferView":0,"componentType":5126,"count":273,"max":[15.594467163085938,53.215145111083984,13.215806007385254],"min":[-16.186262130737305,-3.7882590293884277,-30.997997283935547],"type":"VEC3"},{"bufferView":1,"componentType":5126,"count":273,"max":[0.9991352558135986,0.9949835538864136,0.9570139646530151],"min":[-0.9934567809104919,-0.993452250957489,-0.9885324239730835],"type":"VEC3"},{"bufferView":2,"componentType":5126,"count":273,"max":[0.07000000029802322,0.10999999940395355,0.14000000059604645],"min":[0.07000000029802322,0.10999999940395355,0.14000000059604645],"type":"VEC3"},{"bufferView":3,"componentType":5126,"count":273,"max":[1,1],"min":[0,0.10611899942159653],"type":"VEC2"},{"bufferView":4,"componentType":5126,"count":273,"max":[0,0,0],"min":[0,0,0],"type":"VEC3"},{"bufferView":5,"componentType":5126,"count":273,"max":[1.5964922904968262,1.647796869277954,1.5420852899551392],"min":[-1.2417643070220947,-1.6602168083190918,-1.010124683380127],"type":"VEC3"},{"bufferView":6,"componentType":5126,"count":273,"max":[14.508512496948242,0.22817504405975342,1.612020492553711],"min":[-15.904596328735352,-9.41489028930664,-0.7052021026611328],"type":"VEC3"},{"bufferView":7,"componentType":5126,"count":273,"max":[1.5965044498443604,1.7133820056915283,1.5338435173034668],"min":[-1.214881181716919,-1.7104686498641968,-1.0212600231170654],"type":"VEC3"},{"bufferView":8,"componentType":5126,"count":273,"max":[29.462482452392578,0.8226460218429565,3.9435462951660156],"min":[-29.824087142944336,-28.228857040405273,-0.13199496269226074],"type":"VEC3"},{"bufferView":9,"componentType":5126,"count":273,"max":[1.594940423965454,1.7063660621643066,1.5356860160827637],"min":[-1.1385008096694946,-1.7548258304595947,-1.0176447629928589],"type":"VEC3"},{"bufferView":10,"componentType":5126,"count":273,"max":[30.189105987548828,1.4158419370651245,7.015770435333252],"min":[-26.99397850036621,-76.78235626220703,-0.11321806907653809],"type":"VEC3"},{"bufferView":11,"componentType":5126,"count":273,"max":[1.6424274444580078,1.6902434825897217,1.5520527362823486],"min":[-1.641005039215088,-1.7782750129699707,-1.0428314208984375],"type":"VEC3"},{"bufferView":12,"componentType":5126,"count":273,"max":[6.206352233886719,1.8855149745941162,7.020970344543457],"min":[-3.771329879760742,-95.95338439941406,-0.2156543731689453],"type":"VEC3"},{"bufferView":13,"componentType":5126,"count":273,"max":[1.9765141010284424,1.7084938287734985,1.5686042308807373],"min":[-1.9797334671020508,-1.7821725606918335,-1.0497379302978516],"type":"VEC3"},{"bufferView":14,"componentType":5126,"count":273,"max":[7.825078964233398,2.0078301429748535,6.551968574523926],"min":[-5.7584428787231445,-90.98027801513672,-0.31037235260009766],"type":"VEC3"},{"bufferView":15,"componentType":5126,"count":273,"max":[1.989144206047058,1.7094626426696777,1.580019474029541],"min":[-1.9709020853042603,-1.7492833137512207,-1.0140342712402344],"type":"VEC3"},{"bufferView":16,"componentType":5126,"count":273,"max":[14.66348648071289,1.9210779666900635,8.986586570739746],"min":[-13.14238452911377,-83.05718994140625,-0.34200477600097656],"type":"VEC3"},{"bufferView":17,"componentType":5126,"count":273,"max":[1.9901213645935059,1.7063608169555664,1.5838531255722046],"min":[-1.9820530414581299,-1.6857061386108398,-0.945860743522644],"type":"VEC3"},{"bufferView":18,"componentType":5126,"count":273,"max":[18.31736183166504,2.3272149562835693,12.67335319519043],"min":[-18.340007781982422,-72.91704559326172,-0.6095160245895386],"type":"VEC3"},{"bufferView":19,"componentType":5126,"count":273,"max":[1.9863330125808716,1.6979255676269531,1.6899209022521973],"min":[-1.9642183780670166,-1.7303673028945923,-0.8680976629257202],"type":"VEC3"},{"bufferView":20,"componentType":5126,"count":273,"max":[20.098798751831055,2.4605600833892822,14.047423362731934],"min":[-23.55208396911621,-61.743263244628906,-1.4024860858917236],"type":"VEC3"},{"bufferView":21,"componentType":5126,"count":273,"max":[1.9371528625488281,1.6882774829864502,1.7345829010009766],"min":[-1.9435113668441772,-1.651862621307373,-0.8430002927780151],"type":"VEC3"},{"bufferView":22,"componentType":5126,"count":273,"max":[28.5029296875,2.5771827697753906,9.008476257324219],"min":[-29.580854415893555,-44.845970153808594,-1.647507905960083],"type":"VEC3"},{"bufferView":23,"componentType":5126,"count":273,"max":[1.593479037284851,1.6781833171844482,1.6099140644073486],"min":[-1.5028730630874634,-1.6958401203155518,-0.847889244556427],"type":"VEC3"},{"bufferView":24,"componentType":5126,"count":273,"max":[24.909679412841797,1.117727279663086,1.3349075317382812],"min":[-23.102354049682617,-16.928749084472656,-1.8462533950805664],"type":"VEC3"},{"bufferView":25,"componentType":5126,"count":273,"max":[1.59639573097229,1.6663076877593994,1.5514447689056396],"min":[-1.3308193683624268,-1.6757735013961792,-0.9293585419654846],"type":"VEC3"},{"bufferView":26,"componentType":5123,"count":1878,"max":[272],"min":[0],"type":"SCALAR"},{"bufferView":27,"componentType":5126,"count":12,"max":[1.100000023841858],"min":[0],"type":"SCALAR"},{"bufferView":28,"componentType":5126,"count":132,"max":[1],"min":[0],"type":"SCALAR"}],"materials":[{"pbrMetallicRoughness":{"baseColorFactor":[0.4980392156862745,0.4980392156862745,0.4980392156862745,1],"metallicFactor":0,"roughnessFactor":1}}],"meshes":[{"weights":[0,0,0,0,0,0,0,0,0,0,0],"extras":{"targetNames":["raven_flyA_001","raven_flyA_002","raven_flyA_003","raven_flyA_004","raven_flyA_005","raven_flyA_006","raven_flyA_007","raven_flyA_008","raven_flyA_009","raven_flyA_010","raven_flyA_011"]},"primitives":[{"mode":4,"attributes":{"POSITION":0,"NORMAL":1,"COLOR_0":2,"TEXCOORD_0":3},"targets":[{"POSITION":4,"NORMAL":5},{"POSITION":6,"NORMAL":7},{"POSITION":8,"NORMAL":9},{"POSITION":10,"NORMAL":11},{"POSITION":12,"NORMAL":13},{"POSITION":14,"NORMAL":15},{"POSITION":16,"NORMAL":17},{"POSITION":18,"NORMAL":19},{"POSITION":20,"NORMAL":21},{"POSITION":22,"NORMAL":23},{"POSITION":24,"NORMAL":25}],"indices":26,"material":0}]}],"animations":[{"name":"raven_flyA_","samplers":[{"input":27,"output":28,"interpolation":"LINEAR"}],"channels":[{"sampler":0,"target":{"node":0,"path":"weights"}}]}]}