{"asset":{"version":"2.0","generator":"THREE.GLTFExporter"},"scenes":[{"nodes":[0],"name":"AuxScene"}],"scene":0,"nodes":[{"mesh":0}],"bufferViews":[{"buffer":0,"byteOffset":0,"byteLength":5868,"target":34962,"byteStride":12},{"buffer":0,"byteOffset":5868,"byteLength":5868,"target":34962,"byteStride":12},{"buffer":0,"byteOffset":11736,"byteLength":5868,"target":34962,"byteStride":12},{"buffer":0,"byteOffset":17604,"byteLength":3912,"target":34962,"byteStride":8},{"buffer":0,"byteOffset":21516,"byteLength":5868,"target":34962,"byteStride":12},{"buffer":0,"byteOffset":27384,"byteLength":5868,"target":34962,"byteStride":12},{"buffer":0,"byteOffset":33252,"byteLength":5868,"target":34962,"byteStride":12},{"buffer":0,"byteOffset":39120,"byteLength":5868,"target":34962,"byteStride":12},{"buffer":0,"byteOffset":44988,"byteLength":5868,"target":34962,"byteStride":12},{"buffer":0,"byteOffset":50856,"byteLength":5868,"target":34962,"byteStride":12},{"buffer":0,"byteOffset":56724,"byteLength":5868,"target":34962,"byteStride":12},{"buffer":0,"byteOffset":62592,"byteLength":5868,"target":34962,"byteStride":12},{"buffer":0,"byteOffset":68460,"byteLength":5868,"target":34962,"byteStride":12},{"buffer":0,"byteOffset":74328,"byteLength":5868,"target":34962,"byteStride":12},{"buffer":0,"byteOffset":80196,"byteLength":5868,"target":34962,"byteStride":12},{"buffer":0,"byteOffset":86064,"byteLength":5868,"target":34962,"byteStride":12},{"buffer":0,"byteOffset":91932,"byteLength":5868,"target":34962,"byteStride":12},{"buffer":0,"byteOffset":97800,"byteLength":5868,"target":34962,"byteStride":12},{"buffer":0,"byteOffset":103668,"byteLength":5868,"target":34962,"byteStride":12},{"buffer":0,"byteOffset":109536,"byteLength":5868,"target":34962,"byteStride":12},{"buffer":0,"byteOffset":115404,"byteLength":5868,"target":34962,"byteStride":12},{"buffer":0,"byteOffset":121272,"byteLength":5868,"target":34962,"byteStride":12},{"buffer":0,"byteOffset":127140,"byteLength":5868,"target":34962,"byteStride":12},{"buffer":0,"byteOffset":133008,"byteLength":5868,"target":34962,"byteStride":12},{"buffer":0,"byteOffset":138876,"byteLength":5868,"target":34962,"byteStride":12},{"buffer":0,"byteOffset":144744,"byteLength":5868,"target":34962,"byteStride":12},{"buffer":0,"byteOffset":150612,"byteLength":5868,"target":34962,"byteStride":12},{"buffer":0,"byteOffset":156480,"byteLength":5868,"target":34962,"byteStride":12},{"buffer":0,"byteOffset":162348,"byteLength":5868,"target":34962,"byteStride":12},{"buffer":0,"byteOffset":168216,"byteLength":5868,"target":34962,"byteStride":12},{"buffer":0,"byteOffset":174084,"byteLength":5868,"target":34962,"byteStride":12},{"buffer":0,"byteOffset":179952,"byteLength":5868,"target":34962,"byteStride":12},{"buffer":0,"byteOffset":185820,"byteLength":5904,"target":34963},{"buffer":0,"byteOffset":191724,"byteLength":60},{"buffer":0,"byteOffset":191784,"byteLength":840}],"buffers":[{"byteLength":192624,"uri":"data:application/octet-stream;base64,"}],"accessors":[{"bufferView":0,"componentType":5126,"count":489,"max":[15.079167366027832,70.39826965332031,63.08372116088867],"min":[-15.600008010864258,0.12005700170993805,-82.42095184326172],"type":"VEC3"},{"bufferView":1,"componentType":5126,"count":489,"max":[0.9988236427307129,0.9752995371818542,0.9721103310585022],"min":[-0.9981206655502319,-0.9999986886978149,-0.9962048530578613],"type":"VEC3"},{"bufferView":2,"componentType":5126,"count":489,"max":[0.8500000238418579,0.5,0.5],"min":[0,0,0],"type":"VEC3"},{"bufferView":3,"componentType":5126,"count":489,"max":[0.9705640077590942,0.9922119975090027],"min":[0.032912999391555786,0.0067079998552799225],"type":"VEC2"},{"bufferView":4,"componentType":5126,"count":489,"max":[0,0,0],"min":[0,0,0],"type":"VEC3"},{"bufferView":5,"componentType":5126,"count":489,"max":[1.768993854522705,0.898230791091919,1.581784725189209],"min":[-1.7504081726074219,-1.1699764728546143,-0.9191838502883911],"type":"VEC3"},{"bufferView":6,"componentType":5126,"count":489,"max":[2.4637832641601562,11.713092803955078,22.06329345703125],"min":[-1.2398099899291992,-13.522354125976562,-30.829526901245117],"type":"VEC3"},{"bufferView":7,"componentType":5126,"count":489,"max":[1.7591766119003296,1.0461218357086182,1.3861020803451538],"min":[-1.7536964416503906,-1.241164207458496,-0.8841894865036011],"type":"VEC3"},{"bufferView":8,"componentType":5126,"count":489,"max":[4.106290817260742,22.51268768310547,37.8310432434082],"min":[-1.903778076171875,-14.04008960723877,-57.91000747680664],"type":"VEC3"},{"bufferView":9,"componentType":5126,"count":489,"max":[1.6918584108352661,1.4636828899383545,1.2862663269042969],"min":[-1.7711520195007324,-1.428821086883545,-1.3944532871246338],"type":"VEC3"},{"bufferView":10,"componentType":5126,"count":489,"max":[5.7129926681518555,28.59328842163086,54.10752868652344],"min":[-4.881396770477295,-17.124908447265625,-66.87229919433594],"type":"VEC3"},{"bufferView":11,"componentType":5126,"count":489,"max":[1.658829689025879,1.716120719909668,1.3310062885284424],"min":[-1.806725263595581,-1.6448930501937866,-1.3970390558242798],"type":"VEC3"},{"bufferView":12,"componentType":5126,"count":489,"max":[4.936667442321777,25.217121124267578,73.74651336669922],"min":[-6.093020915985107,-20.242265701293945,-67.54315948486328],"type":"VEC3"},{"bufferView":13,"componentType":5126,"count":489,"max":[1.6734862327575684,1.879756212234497,1.50760817527771],"min":[-1.8197267055511475,-1.814266324043274,-1.2854772806167603],"type":"VEC3"},{"bufferView":14,"componentType":5126,"count":489,"max":[3.2012839317321777,18.86927032470703,81.25645446777344],"min":[-5.784074306488037,-24.30386734008789,-67.91934204101562],"type":"VEC3"},{"bufferView":15,"componentType":5126,"count":489,"max":[1.6661720275878906,1.9983761310577393,1.8342578411102295],"min":[-1.7907440662384033,-1.8058769702911377,-1.5059475898742676],"type":"VEC3"},{"bufferView":16,"componentType":5126,"count":489,"max":[2.2549829483032227,17.436626434326172,74.65327453613281],"min":[-4.505542278289795,-26.812641143798828,-71.7314453125],"type":"VEC3"},{"bufferView":17,"componentType":5126,"count":489,"max":[1.6125028133392334,1.9685384035110474,1.7374639511108398],"min":[-1.675493836402893,-1.8935840129852295,-1.6030592918395996],"type":"VEC3"},{"bufferView":18,"componentType":5126,"count":489,"max":[2.1259937286376953,18.905637741088867,62.15565872192383],"min":[-3.7603378295898438,-29.244535446166992,-60.67567443847656],"type":"VEC3"},{"bufferView":19,"componentType":5126,"count":489,"max":[1.5997881889343262,1.7821277379989624,1.4488420486450195],"min":[-1.7473890781402588,-1.8867361545562744,-1.523716688156128],"type":"VEC3"},{"bufferView":20,"componentType":5126,"count":489,"max":[2.8774948120117188,22.871591567993164,47.85070037841797],"min":[-3.710026741027832,-29.509105682373047,-47.15956497192383],"type":"VEC3"},{"bufferView":21,"componentType":5126,"count":489,"max":[1.59395432472229,1.8224233388900757,1.495318055152893],"min":[-1.7710883617401123,-1.8115402460098267,-1.4761631488800049],"type":"VEC3"},{"bufferView":22,"componentType":5126,"count":489,"max":[3.045513153076172,31.37970542907715,29.346630096435547],"min":[-3.6537952423095703,-27.70472526550293,-35.47412872314453],"type":"VEC3"},{"bufferView":23,"componentType":5126,"count":489,"max":[1.6714379787445068,1.668543815612793,1.31704580783844],"min":[-1.765881061553955,-1.832702398300171,-1.521332859992981],"type":"VEC3"},{"bufferView":24,"componentType":5126,"count":489,"max":[3.0508480072021484,33.22360610961914,30.370559692382812],"min":[-3.6562423706054688,-16.315353393554688,-41.088356018066406],"type":"VEC3"},{"bufferView":25,"componentType":5126,"count":489,"max":[1.7320613861083984,1.3123652935028076,1.361276626586914],"min":[-1.7763909101486206,-1.357351303100586,-1.3723866939544678],"type":"VEC3"},{"bufferView":26,"componentType":5126,"count":489,"max":[3.064194679260254,29.63870620727539,30.668045043945312],"min":[-3.681393623352051,-16.367380142211914,-35.4459228515625],"type":"VEC3"},{"bufferView":27,"componentType":5126,"count":489,"max":[1.7613589763641357,1.3996902704238892,1.0380209684371948],"min":[-1.7900574207305908,-1.3534278869628906,-1.0575833320617676],"type":"VEC3"},{"bufferView":28,"componentType":5126,"count":489,"max":[3.0932483673095703,22.158958435058594,27.95513916015625],"min":[-3.680478096008301,-10.090282440185547,-26.542259216308594],"type":"VEC3"},{"bufferView":29,"componentType":5126,"count":489,"max":[1.7556521892547607,1.3888789415359497,1.2522693872451782],"min":[-1.8017985820770264,-1.3261386156082153,-1.2325384616851807],"type":"VEC3"},{"bufferView":30,"componentType":5126,"count":489,"max":[2.787356376647949,13.0215425491333,13.854537963867188],"min":[-1.798940658569336,-3.0742454528808594,-14.271598815917969],"type":"VEC3"},{"bufferView":31,"componentType":5126,"count":489,"max":[1.7589882612228394,1.1894060373306274,1.1761384010314941],"min":[-1.7814455032348633,-1.236048698425293,-0.9238834977149963],"type":"VEC3"},{"bufferView":32,"componentType":5123,"count":2952,"max":[488],"min":[0],"type":"SCALAR"},{"bufferView":33,"componentType":5126,"count":15,"max":[1.399999976158142],"min":[0],"type":"SCALAR"},{"bufferView":34,"componentType":5126,"count":210,"max":[1],"min":[0],"type":"SCALAR"}],"materials":[{"pbrMetallicRoughness":{"baseColorFactor":[0.4196078431372549,0.5686274509803921,0.4470588235294118,1],"metallicFactor":0,"roughnessFactor":1}}],"meshes":[{"weights":[0,0,0,0,0,0,0,0,0,0,0,0,0,0],"extras":{"targetNames":["wolfDash_A_001","wolfDash_A_002","wolfDash_A_003","wolfDash_A_004","wolfDash_A_005","wolfDash_A_006","wolfDash_A_007","wolfDash_A_008","wolfDash_A_009","wolfDash_A_010","wolfDash_A_011","wolfDash_A_012","wolfDash_A_013","wolfDash_A_014"]},"primitives":[{"mode":4,"attributes":{"POSITION":0,"NORMAL":1,"COLOR_0":2,"TEXCOORD_0":3},"targets":[{"POSITION":4,"NORMAL":5},{"POSITION":6,"NORMAL":7},{"POSITION":8,"NORMAL":9},{"POSITION":10,"NORMAL":11},{"POSITION":12,"NORMAL":13},{"POSITION":14,"NORMAL":15},{"POSITION":16,"NORMAL":17},{"POSITION":18,"NORMAL":19},{"POSITION":20,"NORMAL":21},{"POSITION":22,"NORMAL":23},{"POSITION":24,"NORMAL":25},{"POSITION":26,"NORMAL":27},{"POSITION":28,"NORMAL":29},{"POSITION":30,"NORMAL":31}],"indices":32,"material":0}]}],"animations":[{"name":"wolfDash_A_","samplers":[{"input":33,"output":34,"interpolation":"LINEAR"}],"channels":[{"sampler":0,"target":{"node":0,"path":"weights"}}]}]}